<?xml version='1.0' encoding='UTF-8'?>
<svg xmlns="http://www.w3.org/2000/svg" viewBox="0 0 900 220" role="img" aria-label="Feegeflüster – Tierkommunikation &amp; Begleitung">
  <defs>
    <style>
      .st0 {
        fill: #c5a66e;
      }

      .st1 {
        fill: #827d87;
      }

      .st2 {
        fill: #c8a56e;
      }
    </style>
  </defs>
  <g transform="translate(-182.229 -59.820) scale(0.72)" id="signet">
    <g>
      <path class="st2" d="M405.45,216.5c.57-3.37,3.91-4.06,7.15-4.86,1.64-.41,3.62-1.22,3.77-2.3.05-.34-.2-1.05-.44-1.39-3.39-4.79-6.07-9.87-7.66-15.51-1.02-3.62-.89-7.04.16-10.62l2.22-7.54c2.77-9.4.19-20.46-4.21-29.15l-4.42-8.72c.41,4.35-.11,8.56-1.63,12.75-4.61,12.73-15.88,20.86-28.35,25.61-8.25,3.14-17.38,4.32-26.31,7.18-7.3,2.34-14.73,6.2-20.31,11.46-9.51,8.98-15.2,21.61-14.12,34.68,1.61,19.59,9.07,28.86,12.14,33.27-1.69-3.48-3.35-6.62-4.74-10.22-2.85-7.39-4.55-15.07-4.42-23.06.18-10.65,4.01-20.73,11.11-28.6,7.36-8.17,17.85-13.03,28.39-15.81,4.21-1.11,8.11-2.45,12.74-3.18-6.94,4.66-13.15,9.32-18.5,15.47-3.81,4.37-6.9,9.04-9.04,14.44-2.94,7.41-4.25,15.07-3.63,23.05.99,12.66,6.13,24.61,13.2,35.02,4.09,6.01,8.46,11.55,13.51,16.78l12.47,12.92,3.66,3.97c6.21,6.74,11.52,13.98,16.13,21.97,4.89,8.65,9.06,17.82,10.54,28.24-6.02-8.58-11.94-16.25-18.98-23.48-6.13-6.29-12.5-12.04-19.25-17.65l-23.19-19.31c-5.59-4.65-10.8-9.48-15.86-14.7-14.73-15.18-26.72-31.51-33.31-51.69-5.39-16.5-15.46-54.11,10.95-86.64,13.7-16.87,37.29-28.39,57.69-28.01,31.36.59,49.45,15.61,56.63,33.26,4.34,10.67,4.11,21.89-.6,32.34-3.16,7.02-6.04,10.8-5.44,17.38.29,3.24,1.89,7.21,3.7,9.86l1.99,2.92c1.58,2.32,1,5.29-1.62,6.65-2.15,1.11-4.54,1.78-6.88,2.55-1.29.43-2.26,1.57-1.94,2.98l.72,3.16c.38,1.65-.03,3.57-1.6,4.29l-2.52,1.15c.68,1.28.9,2.78.31,4.24-1.28,3.19-5.22,1.96-5.7,5.54-.78,5.81-1.74,11.1-8.18,12.06-5.36.8-12.5-2.08-17.71-4.33-3.98-1.72-6.72-3.06-10.31-.23-1.63,1.29-2.79,2.98-3.64,4.91-3.51,8.01-2.02,19.29,1.87,26.92l3.55,6.95c-8.85-8.4-13.95-20.15-11.54-32.13.81-4.04,2.4-7.75,5.39-10.5,2.07-1.91,4.96-3.06,7.7-2.38,2.32.58,4.38,1.58,6.56,2.5,3.53,1.51,6.95,2.92,10.64,4.02,4.78,1.42,10.06,1.6,11.3-3.43l.82-5.71c.39-2.69,2.05-4.52,4.72-4.84.74-.09,1.7-.77,1.38-1.61-.29-.77-.98-2-1.53-2.52l-3.77-1.75c2.8-.31,5.17-.14,7.52-1.23,2.7-1.25-.02-3.07.71-7.38"/>
      <path class="st0" d="M401.74,186.16c-.11.97-.22,1.47-.49,2.15-.95,2.33,1.37,3.43,1.27,4.08-.14.89-4.82,1.11-8.55-1.56-2.53-1.81-4.62-4.16-5.62-7.15,1.97.81,3.39,1.8,4.92,2.89,2.08,1.52,5.29,2.86,6.64,1.48l1.84-1.89Z"/>
      <path class="st2" d="M434.89,128.74l-.92,4.65-1.14-4.8c-.13-.54-.81-1.43-1.39-1.58l-4.31-1.09,4.11-.98c.71-.17,1.48-.86,1.64-1.59l1.07-4.83.97,4.7c.1.51.8,1.49,1.35,1.64l3.96,1.07-3.78,1.02c-.66.18-1.4.99-1.56,1.79"/>
      <path class="st2" d="M462.55,140.53c1.41-.34,2.72.46,3.07,1.74.34,1.26-.4,2.56-1.6,2.94-1.35.43-2.69-.14-3.19-1.55-.41-1.18.21-2.76,1.71-3.12"/>
      <path class="st2" d="M450.34,162.89l-.92,4.65-1.14-4.8c-.13-.54-.81-1.43-1.39-1.58l-4.31-1.09,4.11-.98c.71-.17,1.48-.86,1.64-1.59l1.07-4.83.97,4.7c.1.51.8,1.49,1.35,1.64l3.96,1.07-3.78,1.02c-.66.18-1.4.99-1.56,1.79"/>
      <path class="st2" d="M474.03,153.39l-.92,4.65-1.14-4.8c-.13-.54-.81-1.43-1.39-1.58l-4.31-1.09,4.11-.98c.71-.17,1.48-.86,1.64-1.59l1.07-4.83.97,4.7c.1.51.8,1.49,1.35,1.64l3.96,1.07-3.78,1.02c-.66.18-1.4.99-1.56,1.79"/>
    </g>
    <path class="st1" d="M462.75,183.18c.19.63.97,5.2.97,5.2.58,3.13,1.23,6.15,1.44,9.24-1.59.49-5.47,1.62-8.19,2.88-8.94,4.11-14.92,8.73-17.95,18.21-2.44,7.63-8.35,10.99-15.42,13.85-2.04.83-3.26,2.29-2.83,4.62.4,2.14.66,4.52,2.3,6.25,1.13-2.06,2.76-3.64,4.91-3.44l-3.24,2.83c-1.32,1.15-1.7,3.01-1.14,4.68l.84,2.53c-1.3,4.72,1.51,9.03,6.02,10.84,6.78,2.72,14.45,1.59,20.59,9.21,3.33,4.13,4.26,9.47,2.91,14.62-2.21,8.43-9.99,15.12-16.5,20.86-4.9,4.31-9.3,8.85-13.19,14.1-9.01,11.81-13.25,26.41-12.28,41.23.11.21.29.53.41.48l.58-.23c3.49-6.21,7.65-11.78,12.52-17.01,5.59-6.1,11.67-11.36,18.31-16.3l14.95-10.07,15.85-9.92c6.85-4.29,13.17-9,19.16-14.44,8.16-7.4,14.59-16.36,19.98-25.83,6.15-10.81,7.76-18.49,8.35-28.08.6-13.87-4.89-27.27-14.95-36.73-3.37-10.47-10.75-21.04-18.54-28.76-1.6-1.58-4.05-3.64-5.45-4.01-1.89-.5-3.45.41-4.05,2.2-.67,2.02-.96,4.1-1.16,6.28-.4,4.41-.82,8.69-1.79,13.15-3.06-3.88-7.24-7.93-11.68-9.83-1.77-.79-1.99.57-1.74,1.38ZM448.33,228.59c.03-3.09.12-3.86.78-5.87l.14,3.85c.05,1.4.72,1.81,1.97,1.7,2.05-.17,6.46-.53,10.72.84,0,0-3.21,1.79-5.32,2.09-2.1.3-4.5.26-6.41-.2-.75-.18-1.35-.32-1.83.35-1.09,1.5-1.63,3.17-2.15,5.01-1.1-3.66,2.07-6.1,2.09-7.78ZM451.8,246.49c4.51.67,8.24,2.66,8.33,3.06,0,0-10.18-2.38-20.11-3.1,0,0,1.45-1.49,11.77.04ZM439.5,254.12c.79.36,3.52-.28,12.1,6.15,7.77,5.82,13.97,15.97,14.06,25.71-.65-3.34-7.02-23.22-26.17-31.86ZM440.41,250.22c1.25.34,5.39-.98,19.29,6.23,6.5,3.37,11.27,7.96,13.24,11.15,0,0-12.64-12.05-32.53-17.38ZM486.83,202.81c-2.34-1.45-4.64-2.68-7.29-3.55,2.07-5.95,3.03-12.03,2.79-18.59,1.5,3.08,2.83,6.4,3.89,9.91.95,3.98,1.52,7.87.61,12.23Z"/>
    <path class="st1" d="M523.64,217.07c7.17-17.49,6.58-37.14,4.97-45.75-2.06-11.02-7.08-21.12-14.15-29.76-5.14-6.29-11.34-11.5-18.49-15.28-9.05-4.8-18.91-6.27-29.17-4.35,3.05-1.58,6.36-2.17,9.77-2.53,7.81-.82,15.55.34,22.9,3.09,16.37,6.14,29.13,19.46,36.19,35.31,3.07,6.89,5.27,13.92,6.38,21.4,3.23,21.71-2.34,42.53-11.45,62.16-1.99,4.3-3.9,8.47-6.43,12.3,0,0,8.03-17.09-.52-36.6Z"/>
  </g>
  <g transform="translate(83.552 -318.224) scale(0.93)" id="wordmark">
    <path class="st1" d="M177.57,455.66h-3.97v-.38c0-1.61.01-4.47.04-8.59.03-4.12.04-10.04.04-17.76,0-3.03-.01-7.02-.04-11.97-.03-4.95-.04-10.09-.04-15.43v-.38h.38c1.8,0,3.95,0,6.46.02,2.51.01,5.18.02,8.02.02,4.26,0,7.78,0,10.54-.02,2.76-.01,4.35-.02,4.75-.02h.38v3.32h-.38c-.43,0-2.03,0-4.79-.02-2.76-.01-6.15-.02-10.18-.02-1.82,0-3.94,0-6.35.02-2.15.01-3.77.02-4.86.02,0,2.98-.02,6.87-.04,11.67-.03,4.78-.04,8.49-.04,11.15.58,0,1.73,0,3.45.02,2.25.01,4.01.02,5.27.02,4,0,7.76,0,11.28-.02,3.53-.01,5.49-.02,5.9-.02h.38v3.37h-.38c-.48,0-2.73,0-6.74-.02-4.01-.01-7.61-.02-10.8-.02-.99,0-2.61,0-4.87.02-1.74.01-2.9.02-3.49.02,0,4.62.01,9.2.04,13.74.03,4.67.04,8.29.04,10.86v.38Z"/>
    <path class="st1" d="M314.07,473.97h-.32l-.04-3.16c2.84.03,5.71-.17,8.51-.58,2.79-.41,5.19-1.08,7.13-2,3.02-1.41,5.17-3.29,6.39-5.61,1.17-2.24,1.79-4.79,1.84-7.6h-1.39c-3.58,0-7.02-.42-10.21-1.26-3.2-.84-6.02-2.03-8.38-3.55-2.42-1.55-4.47-3.66-6.09-6.27-1.63-2.62-2.45-5.9-2.45-9.73s1.04-7.17,3.09-9.98c2.04-2.78,4.68-5.04,7.85-6.73,2.17-1.16,4.66-2.04,7.4-2.61,2.74-.57,5.92-.85,9.47-.85h4.56v38.71c0,4.63-.74,8.32-2.2,10.96-1.46,2.65-3.57,4.8-6.27,6.38-2.06,1.22-4.68,2.18-7.79,2.86-3.1.67-6.83,1.01-11.1,1.01ZM337,417.21c-2.78,0-5.27.17-7.4.5-2.12.33-4.41,1.04-6.8,2.12-2.64,1.2-4.99,3.02-6.97,5.41-1.96,2.36-2.95,5.41-2.95,9.05,0,3.42.81,6.36,2.41,8.74,1.61,2.39,3.76,4.32,6.4,5.73,1.76.95,3.94,1.71,6.48,2.26,2.55.55,5.38.84,8.43.84h1.03c0-.77-.04-31.61-.04-34.65h-.59Z"/>
    <path class="st1" d="M410.15,417.45h-7.92v-3.16h7.92v-1.67c0-2.27.25-4.38.76-6.28.51-1.92,1.49-3.74,2.91-5.41,1.21-1.43,2.96-2.63,5.19-3.58,2.22-.94,4.7-1.41,7.37-1.41l2.4.04v3.13s-2.24,0-2.24,0c-1.85,0-3.65.31-5.34.92-1.68.61-3.09,1.5-4.2,2.66-1.06,1.1-1.85,2.45-2.37,4.01-.52,1.57-.79,3.74-.79,6.44v1.15h14.04v3.16h-14.04c0,8.56.08,38.22.08,38.22h-3.85l.08-38.22Z"/>
    <path class="st1" d="M445.65,455.66h-3.85v-59.72h3.85v59.72Z"/>
    <path class="st1" d="M477.37,456.51c-3.28,0-6-1.08-8.07-3.21-2.07-2.13-3.12-5.44-3.12-9.84v-29.18h3.85s-.04,26.94-.04,28.09c0,3.63.64,6.38,1.9,8.17,1.23,1.75,3.42,2.64,6.49,2.64,2.24,0,5.06-.78,8.39-2.32,3.23-1.5,5.55-2.76,6.88-3.77,0-.6-.04-32.81-.04-32.81h3.85v41.38h-3.77v-5.09c-1.51.99-3.78,2.18-6.75,3.56-3.39,1.57-6.61,2.37-9.57,2.37ZM491.06,407.15h-4.57v-4.57h4.57v4.57ZM477.1,407.15h-4.57v-4.57h4.57v4.57Z"/>
    <path class="st1" d="M520.37,455.87c-.9,0-1.99-.03-3.24-.1-1.24-.07-3.13-.21-3.13-.21l.03-3.41s1.82.15,2.95.22c2.39.14,5.55.2,8.85-.32,1.75-.27,3-.62,3.74-1.02,1.4-.75,2.49-1.62,3.25-2.6.73-.95,1.11-2.21,1.11-3.75,0-1.18-.34-2.29-1.02-3.31-.69-1.04-1.71-1.98-3.02-2.81-.95-.61-2.42-1.36-4.38-2.25-1.99-.9-3.61-1.73-4.83-2.46-1.67-.99-3.03-2.25-4.04-3.75-1.02-1.52-1.53-3.26-1.53-5.18s.47-3.58,1.39-5.03c.91-1.44,2.31-2.7,4.15-3.75,1.1-.63,2.55-1.14,4.31-1.51,1.75-.37,3.78-.55,6.05-.55,1.4,0,2.58.02,3.52.06.95.04,2.45.13,2.45.13v3.32s-1.8-.07-2.85-.1c-1.06-.03-2.23-.04-3.51-.04-1.79,0-3.38.13-4.74.38-1.33.25-2.53.67-3.56,1.26-1.14.69-2.01,1.51-2.58,2.45-.56.93-.85,1.97-.85,3.1,0,1.21.33,2.34.99,3.36.66,1.03,1.81,2.03,3.41,2.96,1.05.61,2.42,1.29,4.05,2.03,1.65.75,3.16,1.52,4.48,2.27,2.09,1.21,3.61,2.57,4.52,4.05.92,1.49,1.38,3.16,1.38,4.96s-.43,3.5-1.28,4.96c-.84,1.45-2.09,2.75-3.71,3.84-1.4.93-3.18,1.64-5.28,2.11-2.08.46-4.45.69-7.04.69Z"/>
    <path class="st1" d="M571.01,455.79c-4.88,0-8.61-1.22-11.1-3.63-2.49-2.41-3.75-6.11-3.75-10.99,0-3.33.08-19.94.08-23.64h-6.8v-3.16h6.92v-9.41h3.61v9.41h14.84v3.16h-14.85c0,.89-.07,16.6-.06,18.13s.02,3.03.02,4.51c0,4.31.87,7.48,2.58,9.43,1.7,1.93,4.85,2.91,9.35,2.91.37,0,2.67-.04,2.67-.04v3.24s-3.02.08-3.51.08Z"/>
    <path class="st1" d="M639.27,455.66h-3.85v-41.38h3.85l-.04,6.6c2.6-1.6,5.62-3.13,9.01-4.56,3.62-1.53,6.27-2.53,7.89-2.99l.37-.11.87,3.39-.36.1c-1.56.42-4.05,1.34-7.42,2.72-3.3,1.36-6.79,3.14-10.37,5.3,0,.58.04,30.08.04,30.56v.38Z"/>
    <path class="st1" d="M609.95,455.79c-3.76,0-7.17-.55-10.15-1.63-2.99-1.09-5.55-2.7-7.62-4.8-1.82-1.88-3.29-4.15-4.34-6.76-1.06-2.61-1.6-5.36-1.6-8.19,0-3.27.39-6.08,1.15-8.35.76-2.27,2.11-4.57,4.01-6.82,1.58-1.88,3.47-3.34,5.6-4.34,2.13-1,4.49-1.5,7-1.5,2.29,0,4.38.38,6.2,1.13,1.83.76,3.43,1.88,4.78,3.33,1.48,1.65,2.64,3.74,3.46,6.23.81,2.48,1.24,5.37,1.27,8.58v.38s-29.69,0-29.69,0c.03,3.53.54,6.55,1.5,8.98.99,2.5,2.92,4.82,5.75,6.92,1.54,1.15,3.44,2.03,5.65,2.63,2.22.61,4.67.85,7.28.91,4.19.1,5.97-.18,5.97-.18l-.09,3.06s-2.96.52-6.12.4ZM590.21,430.01h25.73c-.46-4.54-1.73-7.94-3.78-10.11-2.1-2.22-4.87-3.34-8.24-3.34s-6.4,1.18-8.83,3.5c-2.37,2.26-4.01,5.6-4.87,9.95Z"/>
    <path class="st1" d="M381.6,455.79c-3.76,0-7.17-.55-10.15-1.63-2.99-1.09-5.55-2.7-7.62-4.8-1.82-1.88-3.29-4.15-4.34-6.76-1.06-2.61-1.6-5.36-1.6-8.19,0-3.27.39-6.08,1.15-8.35.76-2.27,2.11-4.57,4.01-6.82,1.58-1.88,3.47-3.34,5.6-4.34,2.13-1,4.49-1.5,7-1.5,2.29,0,4.38.38,6.2,1.13,1.83.76,3.43,1.88,4.78,3.33,1.48,1.65,2.64,3.74,3.46,6.23.81,2.48,1.24,5.37,1.27,8.58v.38s-29.69,0-29.69,0c.03,3.53.54,6.55,1.5,8.98.99,2.5,2.92,4.82,5.75,6.92,1.54,1.15,3.44,2.03,5.65,2.63,2.22.61,4.67.85,7.28.91,4.19.1,5.97-.18,5.97-.18l-.09,3.06s-2.96.52-6.12.4ZM361.86,430.01h25.73c-.46-4.54-1.73-7.94-3.78-10.11-2.1-2.22-4.87-3.34-8.24-3.34s-6.4,1.18-8.83,3.5c-2.37,2.26-4.01,5.6-4.87,9.95Z"/>
    <path class="st1" d="M287.43,455.79c-3.76,0-7.17-.55-10.15-1.63-2.99-1.09-5.55-2.7-7.62-4.8-1.82-1.88-3.29-4.15-4.34-6.76-1.06-2.61-1.6-5.36-1.6-8.19,0-3.27.39-6.08,1.15-8.35.76-2.27,2.11-4.57,4.01-6.82,1.58-1.88,3.47-3.34,5.6-4.34,2.13-1,4.49-1.5,7-1.5,2.29,0,4.38.38,6.2,1.13,1.83.76,3.43,1.88,4.78,3.33,1.48,1.65,2.64,3.74,3.46,6.23.81,2.48,1.24,5.37,1.27,8.58v.38s-29.69,0-29.69,0c.03,3.53.54,6.55,1.5,8.98.99,2.5,2.92,4.82,5.75,6.92,1.54,1.15,3.44,2.03,5.65,2.63,2.22.61,4.67.85,7.28.91,4.19.1,5.97-.18,5.97-.18l-.09,3.06s-2.96.52-6.12.4ZM267.68,430.01h25.73c-.46-4.54-1.73-7.94-3.78-10.11-2.1-2.22-4.87-3.34-8.24-3.34s-6.4,1.18-8.83,3.5c-2.37,2.26-4.01,5.6-4.87,9.95Z"/>
    <path class="st1" d="M241.9,455.79c-3.76,0-7.17-.55-10.15-1.63-2.99-1.09-5.55-2.7-7.62-4.8-1.82-1.88-3.29-4.15-4.34-6.76-1.06-2.61-1.6-5.36-1.6-8.19,0-3.27.39-6.08,1.15-8.35.76-2.27,2.11-4.57,4.01-6.82,1.58-1.88,3.47-3.34,5.6-4.34,2.13-1,4.49-1.5,7-1.5,2.29,0,4.38.38,6.2,1.13,1.83.76,3.43,1.88,4.78,3.33,1.48,1.65,2.64,3.74,3.46,6.23.81,2.48,1.24,5.37,1.27,8.58v.38s-29.69,0-29.69,0c.03,3.53.54,6.55,1.5,8.98.99,2.5,2.92,4.82,5.75,6.92,1.54,1.15,3.44,2.03,5.65,2.63,2.22.61,4.67.85,7.28.91,4.19.1,5.97-.18,5.97-.18l-.09,3.06s-2.96.52-6.12.4ZM222.15,430.01h25.73c-.46-4.54-1.73-7.94-3.78-10.11-2.1-2.22-4.87-3.34-8.24-3.34s-6.4,1.18-8.83,3.5c-2.37,2.26-4.01,5.6-4.87,9.95Z"/>
  </g>
  <g transform="translate(57.706 -384.2) scale(1.08)" id="descriptor">
    <path class="st1" d="M187.87,493.59c-.13,0-4.19-.03-6.2-.03-.02,1.73,0,14.64,0,15.15h-2.08c.02-.5.05-13.35.03-15.15-1.79,0-6.09.03-6.2.03v-1.74h14.45v1.74Z"/>
    <path class="st1" d="M195.4,493.49h-2.22v-2.17h2.22v2.17ZM195.28,508.71h-1.99c0-.13.02-11.38,0-12.77h1.99c-.02,1.21,0,12.74,0,12.77Z"/>
    <path class="st1" d="M212.72,501.85h-9.12c0,.89.2,1.71.57,2.46.37.74.94,1.36,1.7,1.85.49.31,1.04.54,1.67.7.62.16,1.37.23,2.25.23.48,0,.92-.01,1.32-.04.4-.03.65-.04.74-.05l-.23,1.68c-.07,0-.29.02-.67.04-.38.02-.82.03-1.34.03-1.35,0-2.52-.17-3.52-.52-1-.35-1.82-.83-2.46-1.45-.55-.51-1.01-1.17-1.39-1.97-.38-.8-.57-1.69-.57-2.66s.14-1.83.43-2.6c.29-.77.71-1.49,1.29-2.16.5-.57,1.11-1.01,1.85-1.33s1.5-.47,2.29-.47,1.48.12,2.08.35c.61.24,1.13.59,1.58,1.07.5.54.88,1.2,1.14,1.99.26.79.4,1.73.4,2.83ZM210.76,500.44c-.13-1.04-.49-1.86-1.07-2.45-.58-.59-1.34-.89-2.28-.89s-1.73.3-2.36.9c-.63.6-1.07,1.42-1.31,2.44h7.02Z"/>
    <path class="st1" d="M226.28,497.42c-.46.11-1.17.34-2.13.69-.96.35-2.06.83-3.3,1.41,0,.09,0,.52-.01,1.27s-.01,1.45-.01,2.1c0,.99.01,2.17.03,3.53.02,1.36.03,2.12.03,2.27h-1.99c0-.14,0-.61.03-1.41.02-.8.03-2.17.03-4.1,0-.78,0-1.88-.01-3.28s-.02-2.73-.04-3.98h1.96v1.92h.01c.95-.53,1.89-.99,2.81-1.39s1.67-.66,2.22-.81l.38,1.77Z"/>
    <path class="st1" d="M233.68,508.71h-1.99c0-.15.03-16.63,0-18.5h1.99c-.02,1.49,0,18.36,0,18.5ZM235.99,501.98,242.12,508.46l-1.2,1.1c-1.86-1.89-3.52-3.54-4.98-4.95-1.46-1.41-2.26-2.18-2.42-2.32v-.02c.2-.19,1.09-1.08,2.65-2.68,1.57-1.6,2.83-2.92,3.8-3.94l1.22,1.26-5.21,5.09,6.13,6.48Z"/>
    <path class="st1" d="M259.31,502.32c0,.98-.17,1.91-.52,2.8-.35.89-.85,1.65-1.51,2.29-.56.53-1.17.93-1.85,1.21-.68.28-1.44.42-2.3.42-.81,0-1.56-.14-2.27-.41-.71-.27-1.34-.67-1.89-1.21-.64-.61-1.13-1.37-1.48-2.27-.35-.9-.52-1.85-.52-2.85s.15-1.86.45-2.67c.3-.81.76-1.54,1.39-2.19.56-.59,1.22-1.04,1.97-1.36s1.54-.47,2.37-.47c.88,0,1.67.15,2.38.44.71.29,1.34.73,1.9,1.31.64.67,1.11,1.41,1.43,2.24.31.83.47,1.74.47,2.73ZM257.3,502.41c0-.79-.13-1.56-.38-2.31-.26-.75-.65-1.38-1.19-1.89-.33-.32-.72-.57-1.17-.74-.45-.17-.92-.26-1.41-.26-.58,0-1.09.09-1.51.28-.43.19-.83.48-1.21.87-.45.45-.8,1.04-1.05,1.74-.26.71-.38,1.44-.38,2.2,0,.86.13,1.65.39,2.37.26.72.68,1.34,1.26,1.86.33.29.71.52,1.14.68.43.16.88.23,1.36.23.53,0,1.02-.09,1.48-.28.46-.18.86-.45,1.21-.81.48-.49.85-1.08,1.1-1.77.25-.69.38-1.41.38-2.17Z"/>
    <path class="st1" d="M283.74,508.71h-1.99c0-.09.02-.68.03-1.77.01-1.09.02-2.11.02-3.07,0-.38,0-1,0-1.86,0-.86-.01-1.51-.02-1.94-.02-1.01-.23-1.71-.6-2.1-.37-.39-.95-.58-1.74-.58-.46,0-1.01.11-1.65.34s-1.35.59-2.15,1.07c0,.04,0,.13,0,.25,0,.13,0,.29,0,.49,0,.68,0,1.37-.01,2.07,0,.7-.01,1.37-.01,2.01,0,1.4.01,2.57.03,3.52.02.95.03,1.47.03,1.55h-1.99c0-.09,0-.6.03-1.53.02-.93.02-2.02.02-3.28,0-.42,0-1.06,0-1.91,0-.85-.01-1.48-.02-1.89,0-.37-.04-.72-.1-1.06-.06-.34-.17-.62-.33-.86-.18-.26-.4-.46-.68-.59-.28-.13-.67-.2-1.19-.2-.47,0-1.02.14-1.65.41-.63.28-1.35.67-2.17,1.19,0,.14,0,.68-.01,1.61s-.01,1.69-.01,2.28c0,1,.01,2.2.03,3.6s.03,2.14.03,2.22h-1.99c0-.07,0-.56.03-1.47.02-.91.03-2.42.03-4.54,0-.69,0-1.62,0-2.79,0-1.17-.02-2.5-.04-3.98h1.97v1.45s0,.01,0,.01c.56-.4,1.27-.8,2.13-1.2s1.61-.59,2.27-.59c.82,0,1.51.17,2.06.52.55.35.94.78,1.18,1.31h.03c.97-.6,1.86-1.05,2.67-1.36s1.5-.47,2.08-.47c1.16,0,2.07.34,2.72,1.02.65.68.98,1.59.98,2.75,0,.89,0,1.64-.02,2.25s-.02,1.26-.02,1.94c0,1.41.01,2.61.03,3.58.02.98.03,1.5.03,1.57Z"/>
    <path class="st1" d="M309.23,508.71h-1.99c0-.09.02-.68.03-1.77.01-1.09.02-2.11.02-3.07,0-.38,0-1,0-1.86,0-.86-.01-1.51-.02-1.94-.02-1.01-.23-1.71-.6-2.1-.37-.39-.95-.58-1.74-.58-.46,0-1.01.11-1.65.34s-1.35.59-2.15,1.07c0,.04,0,.13,0,.25,0,.13,0,.29,0,.49,0,.68,0,1.37-.01,2.07,0,.7-.01,1.37-.01,2.01,0,1.4.01,2.57.03,3.52.02.95.03,1.47.03,1.55h-1.99c0-.09,0-.6.03-1.53.02-.93.02-2.02.02-3.28,0-.42,0-1.06,0-1.91,0-.85-.01-1.48-.02-1.89,0-.37-.04-.72-.1-1.06-.06-.34-.17-.62-.33-.86-.18-.26-.4-.46-.68-.59-.28-.13-.67-.2-1.19-.2-.47,0-1.02.14-1.65.41-.63.28-1.35.67-2.17,1.19,0,.14,0,.68-.01,1.61s-.01,1.69-.01,2.28c0,1,.01,2.2.03,3.6s.03,2.14.03,2.22h-1.99c0-.07,0-.56.03-1.47.02-.91.03-2.42.03-4.54,0-.69,0-1.62,0-2.79,0-1.17-.02-2.5-.04-3.98h1.97v1.45s0,.01,0,.01c.56-.4,1.27-.8,2.13-1.2s1.61-.59,2.27-.59c.82,0,1.51.17,2.06.52.55.35.94.78,1.18,1.31h.03c.97-.6,1.86-1.05,2.67-1.36s1.5-.47,2.08-.47c1.16,0,2.07.34,2.72,1.02.65.68.98,1.59.98,2.75,0,.89,0,1.64-.02,2.25s-.02,1.26-.02,1.94c0,1.41.01,2.61.03,3.58.02.98.03,1.5.03,1.57Z"/>
    <path class="st1" d="M327.02,508.71h-1.93v-1.46h-.01c-.59.37-1.32.77-2.2,1.18-.88.41-1.74.61-2.59.61-1.16,0-2.07-.34-2.73-1.04-.66-.69-.98-1.66-.98-2.9,0-.67,0-1.47.02-2.4s.02-1.61.02-2.03c0-.77-.01-1.71-.03-2.83-.02-1.12-.03-1.76-.03-1.9h1.99c0,.11,0,.72-.02,1.82-.02,1.1-.03,1.98-.03,2.64,0,.58,0,1.3.01,2.17,0,.87.01,1.48.01,1.84.02.99.19,1.72.52,2.18.33.46.86.69,1.59.69s1.57-.2,2.47-.61c.9-.4,1.55-.76,1.98-1.06,0-.1,0-.57.01-1.4,0-.83.01-1.86.01-3.1,0-.88-.01-1.94-.03-3.17s-.03-1.9-.03-2.01h1.99c0,.14,0,.62-.03,1.42-.02.8-.03,2.17-.03,4.11,0,1.09,0,2.04.01,2.86s.02,2.28.04,4.39Z"/>
    <path class="st1" d="M344.95,508.71h-1.99c0-.24.02-1.01.03-2.33.01-1.32.02-2.14.02-2.45,0-.44,0-1.08,0-1.94,0-.85-.01-1.48-.02-1.88-.02-.97-.21-1.66-.56-2.08s-.94-.63-1.79-.63c-.51,0-1.15.15-1.91.45s-1.52.69-2.3,1.16c0,.09,0,.59-.01,1.5s-.01,1.74-.01,2.49c0,.98.01,2.15.03,3.53s.03,2.1.03,2.17h-1.99c0-.06,0-.57.03-1.55.02-.97.03-2.42.03-4.34,0-.88,0-1.92,0-3.1,0-1.19-.02-2.45-.04-3.79h1.97v1.45s0,.03,0,.03c1.18-.67,2.16-1.14,2.95-1.41.79-.27,1.44-.4,1.96-.4,1.08,0,1.94.34,2.59,1.02.65.68.98,1.6.98,2.78,0,1.06,0,1.97-.02,2.75-.01.77-.02,1.39-.02,1.87,0,.77.01,1.72.03,2.87s.03,1.75.03,1.81Z"/>
    <path class="st1" d="M354.59,493.49h-2.22v-2.17h2.22v2.17ZM354.47,508.71h-1.99c0-.13.02-.96.03-2.49s.02-2.78.02-3.77c0-.87,0-1.82,0-2.86s-.02-2.26-.04-3.65h1.99c-.02,1.21-.03,2.35-.04,3.4-.01,1.06-.02,2-.02,2.82,0,1.96.01,3.53.03,4.72s.03,1.8.03,1.83Z"/>
    <path class="st1" d="M372.17,496.89,373.09,508.46l-1.2,1.1"/>
    <path class="st1" d="M364.26,508.71h-1.99c0-.15.03-16.63,0-18.5h1.99c-.02,1.49,0,18.36,0,18.5ZM366.57,501.98,372.7,508.46l-1.2,1.1c-1.86-1.89-3.52-3.54-4.98-4.95-1.46-1.41-2.26-2.18-2.42-2.32v-.02c.2-.19,1.09-1.08,2.65-2.68,1.57-1.6,2.83-2.92,3.8-3.94l1.22,1.26-5.21,5.09,6.13,6.48Z"/>
    <path class="st1" d="M387.25,501.51c0,2.09,0,3.79-.01,5.1,0,1.31-.01,2.02-.01,2.12-.08,0-.48.04-1.17.09-.7.05-1.6.08-2.7.08-.69,0-1.38-.06-2.08-.19-.7-.13-1.3-.31-1.8-.54-.67-.31-1.22-.74-1.63-1.27-.42-.54-.62-1.19-.62-1.94,0-.8.25-1.49.74-2.08.49-.58,1.18-1.06,2.05-1.42.55-.23,1.28-.43,2.19-.61.91-.18,1.95-.32,3.12-.41-.05-.66-.21-1.19-.49-1.62-.28-.42-.69-.74-1.22-.96-.37-.15-.78-.26-1.24-.32-.45-.06-.98-.09-1.59-.09-.38,0-.7,0-.97.03-.27.02-.62.04-1.08.06l.2-1.68c.13,0,.38-.02.75-.04.37-.02.89-.03,1.53-.03.99,0,1.88.1,2.66.31s1.42.54,1.94,1c.48.44.84.98,1.09,1.62.24.64.37,1.58.37,2.8ZM385.31,504.55v-1.09c0-.44,0-.94-.01-1.51-.37.02-1.02.09-1.94.22-.93.13-1.7.32-2.33.56-.47.18-.89.44-1.26.79-.37.35-.55.79-.55,1.31,0,.57.16,1.03.47,1.38.31.35.74.62,1.27.8.41.14.87.25,1.37.31.5.06,1.03.09,1.58.09.17,0,.37,0,.62-.01.24,0,.5-.02.77-.03,0-.06,0-.34,0-.83,0-.5,0-1.17,0-2.01Z"/>
    <path class="st1" d="M401.54,507.14l-.23,1.6c-.06,0-.2.02-.44.03-.23,0-.43.01-.6.01-1.72,0-3.03-.36-3.91-1.08-.88-.72-1.33-1.82-1.33-3.31,0-.93,0-1.94.02-3s.02-2.39.02-3.98h-2.12v-1.48h2.23v-2.99h1.83v2.99h4.52v1.48h-4.52c0,.18,0,.7-.02,1.58-.01.88-.02,1.52-.02,1.94v3.13c0,1.09.29,1.88.88,2.37.59.48,1.5.73,2.73.73.15,0,.33,0,.54,0s.34,0,.4,0Z"/>
    <path class="st1" d="M409.82,493.49h-2.22v-2.17h2.22v2.17ZM409.71,508.71h-1.99c0-.13.02-.96.03-2.49s.02-2.78.02-3.77c0-.87,0-1.82,0-2.86s-.02-2.26-.04-3.65h1.99c-.02,1.21-.03,2.35-.04,3.4-.01,1.06-.02,2-.02,2.82,0,1.96.01,3.53.03,4.72s.03,1.8.03,1.83Z"/>
    <path class="st1" d="M428.52,502.32c0,.98-.18,1.91-.52,2.8-.35.89-.85,1.65-1.51,2.29-.55.53-1.17.93-1.85,1.21-.68.28-1.45.42-2.3.42-.81,0-1.56-.14-2.27-.41-.71-.27-1.34-.67-1.89-1.21-.64-.61-1.13-1.37-1.48-2.27-.35-.9-.52-1.85-.52-2.85s.15-1.86.45-2.67c.3-.81.76-1.54,1.39-2.19.56-.59,1.22-1.04,1.97-1.36.75-.32,1.54-.47,2.37-.47.88,0,1.67.15,2.38.44.71.29,1.34.73,1.9,1.31.64.67,1.12,1.41,1.43,2.24.31.83.47,1.74.47,2.73ZM426.5,502.41c0-.79-.13-1.56-.38-2.31-.26-.75-.65-1.38-1.19-1.89-.33-.32-.72-.57-1.17-.74-.45-.17-.92-.26-1.41-.26-.58,0-1.09.09-1.52.28-.43.19-.83.48-1.21.87-.45.45-.8,1.04-1.05,1.74-.26.71-.38,1.44-.38,2.2,0,.86.13,1.65.39,2.37.26.72.68,1.34,1.26,1.86.33.29.71.52,1.14.68.43.16.88.23,1.36.23.53,0,1.03-.09,1.48-.28.46-.18.86-.45,1.21-.81.48-.49.85-1.08,1.1-1.77.25-.69.38-1.41.38-2.17Z"/>
    <path class="st1" d="M445.32,508.71h-1.99c0-.24.02-1.01.03-2.33s.02-2.14.02-2.45c0-.44,0-1.08,0-1.94,0-.85-.01-1.48-.02-1.88-.03-.97-.21-1.66-.55-2.08-.35-.42-.94-.63-1.79-.63-.51,0-1.15.15-1.91.45-.76.3-1.52.69-2.3,1.16,0,.09,0,.59-.01,1.5,0,.91-.01,1.74-.01,2.49,0,.98,0,2.15.03,3.53.02,1.38.03,2.1.03,2.17h-1.99c0-.06,0-.57.03-1.55s.03-2.42.03-4.34c0-.88,0-1.92,0-3.1,0-1.19-.02-2.45-.04-3.79h1.97v1.45s0,.03,0,.03c1.18-.67,2.16-1.14,2.95-1.41.79-.27,1.44-.4,1.96-.4,1.08,0,1.94.34,2.59,1.02s.98,1.6.98,2.78c0,1.06,0,1.97-.02,2.75-.01.77-.02,1.39-.02,1.87,0,.77.01,1.72.03,2.87.02,1.15.03,1.75.03,1.81Z"/>
    <path class="st1" d="M478.17,507.5l-1.08,1.46-4.17-3.18h-.03c-1.08,1.2-2.08,2.05-3,2.56-.93.51-1.94.76-3.03.76-1.56,0-2.85-.43-3.87-1.29-1.02-.86-1.53-2.01-1.53-3.44,0-.98.29-1.92.88-2.81.59-.89,1.31-1.66,2.16-2.31v-.03c-.64-.52-1.12-1.08-1.45-1.67-.32-.59-.49-1.24-.49-1.94,0-1.22.52-2.24,1.56-3.05s2.21-1.22,3.51-1.22c1.48,0,2.68.38,3.6,1.15.92.77,1.38,1.79,1.38,3.08,0,.9-.26,1.77-.77,2.6-.52.83-1.33,1.72-2.44,2.67v.03c.54.44,1.15.92,1.83,1.46.68.53,1.15.9,1.39,1.09h.03c.86-1.15,1.64-2.31,2.36-3.48s1.1-1.79,1.16-1.89l1.55,1.01c-.13.2-.64.93-1.53,2.19-.88,1.26-1.64,2.29-2.27,3.1v.03l4.22,3.12ZM471.59,504.85v-.03c-.72-.56-1.6-1.25-2.64-2.06-1.04-.81-2.12-1.67-3.26-2.58h-.03c-.9.86-1.48,1.59-1.74,2.21-.26.61-.39,1.27-.39,1.96,0,.94.33,1.69.98,2.24.66.56,1.45.83,2.39.83s1.82-.23,2.57-.7c.75-.46,1.45-1.09,2.11-1.88ZM470.64,495.78c0-.86-.27-1.55-.81-2.06-.54-.52-1.28-.78-2.21-.78-.86,0-1.58.25-2.16.75s-.88,1.14-.88,1.92c0,.65.3,1.3.91,1.94.61.65,1.52,1.44,2.74,2.37h.03c.9-.75,1.52-1.45,1.86-2.11.34-.66.51-1.33.51-2.03Z"/>
    <path class="st1" d="M505.66,503.73c0,.84-.22,1.6-.65,2.27-.43.67-1.06,1.22-1.88,1.65-.73.38-1.53.65-2.41.83-.88.17-1.88.26-3,.26-.83,0-1.69-.01-2.57-.04-.88-.03-1.37-.05-1.47-.06.03-1.62.04-3.14.05-4.58s.01-2.8.01-4.11c0-2.47-.01-4.43-.03-5.88-.02-1.44-.03-2.19-.03-2.25.12,0,.58-.03,1.39-.06.81-.03,1.6-.05,2.36-.05.87,0,1.66.06,2.4.17.73.11,1.35.27,1.85.47.76.3,1.37.74,1.8,1.31.44.57.66,1.26.66,2.09,0,.87-.27,1.63-.82,2.3s-1.17,1.13-1.88,1.37v.13c.58.05,1.14.19,1.69.41.54.22,1.02.54,1.43.95.36.36.63.76.82,1.2.18.44.28.98.28,1.62ZM503.52,503.8c0-.43-.08-.81-.23-1.15s-.38-.67-.68-.98c-.29-.29-.68-.52-1.18-.69-.5-.18-1.05-.26-1.63-.26-.47,0-.85,0-1.14.01s-.48.01-.57.01l-.2-1.51c.62-.02,1.17-.09,1.65-.22.48-.13.9-.33,1.27-.59.35-.25.64-.57.87-.97.23-.39.34-.83.34-1.32,0-.51-.13-.96-.38-1.33s-.6-.67-1.03-.89c-.37-.18-.82-.31-1.36-.4-.54-.09-1.11-.13-1.73-.13-.39,0-.76,0-1.09.02s-.54.02-.64.02c-.03,1.23-.04,2.53-.04,3.91,0,1.38,0,2.38,0,3,0,1.45,0,2.9.02,4.36.01,1.46.02,2.24.02,2.34.17,0,.39.02.67.03s.55.02.81.02c.97,0,1.86-.05,2.69-.15.83-.1,1.53-.31,2.1-.63.47-.26.83-.6,1.09-1.02.26-.42.38-.91.38-1.48Z"/>
    <path class="st1" d="M522.25,501.85h-9.12c0,.89.2,1.71.57,2.46.37.74.94,1.36,1.7,1.85.49.31,1.04.54,1.67.7.62.16,1.37.23,2.25.23.48,0,.92-.01,1.32-.04.4-.03.65-.04.74-.05l-.23,1.68c-.07,0-.29.02-.67.04-.38.02-.83.03-1.34.03-1.35,0-2.52-.17-3.52-.52-1-.35-1.82-.83-2.45-1.45-.55-.51-1.01-1.17-1.4-1.97-.38-.8-.57-1.69-.57-2.66s.14-1.83.43-2.6.71-1.49,1.29-2.16c.5-.57,1.11-1.01,1.85-1.33.74-.31,1.5-.47,2.29-.47s1.48.12,2.08.35c.61.24,1.13.59,1.58,1.07.5.54.88,1.2,1.14,1.99.26.79.4,1.73.4,2.83ZM520.3,500.44c-.13-1.04-.49-1.86-1.07-2.45-.58-.59-1.34-.89-2.28-.89s-1.73.3-2.36.9-1.07,1.42-1.31,2.44h7.02Z"/>
    <path class="st1" d="M538.08,495.82c0,.19,0,1.02-.02,2.5-.01,1.48-.02,2.89-.02,4.23,0,.91,0,1.83.01,2.78,0,.94.01,1.8.01,2.59,0,1.44-.25,2.57-.74,3.38-.49.82-1.19,1.47-2.1,1.96-.71.37-1.59.66-2.61.88s-2.27.32-3.74.32l-.2-1.6c.98-.02,1.87-.07,2.65-.16.78-.09,1.49-.25,2.13-.49.98-.37,1.67-.86,2.06-1.47.39-.61.59-1.35.61-2.23h-.61c-1,0-2.03-.12-3.09-.36-1.06-.24-1.96-.62-2.71-1.14-.74-.5-1.34-1.14-1.8-1.94s-.69-1.79-.69-2.97.32-2.22.97-3.12c.65-.9,1.51-1.62,2.6-2.15.77-.38,1.62-.64,2.53-.79.91-.15,2.02-.22,3.31-.22h1.45ZM536.15,502.53c0-.6,0-1.36,0-2.27,0-.91-.01-1.85-.03-2.84h-.33c-.78,0-1.47.05-2.05.15-.58.1-1.2.29-1.85.57-.86.37-1.51.91-1.97,1.63-.45.71-.68,1.52-.68,2.42s.23,1.71.68,2.37,1.05,1.16,1.81,1.53c.51.24,1.11.44,1.79.59.68.15,1.39.23,2.15.23h.47c0-.1,0-.57.01-1.41,0-.84.01-1.83.01-2.97Z"/>
    <path class="st1" d="M547.64,508.71h-1.99c0-.1.02-1.33.03-3.69.01-2.36.02-4.32.02-5.88,0-1,0-2.27,0-3.79,0-1.53-.02-3.24-.04-5.14h1.99c-.02,1.3-.03,2.8-.04,4.5,0,1.7-.01,3.14-.01,4.31,0,2.55,0,4.78.03,6.69.02,1.91.02,2.91.02,3Z"/>
    <path class="st1" d="M565.09,501.85h-9.12c0,.89.2,1.71.57,2.46.37.74.94,1.36,1.7,1.85.49.31,1.04.54,1.67.7.62.16,1.37.23,2.25.23.48,0,.92-.01,1.32-.04.4-.03.65-.04.74-.05l-.23,1.68c-.07,0-.29.02-.67.04-.38.02-.83.03-1.34.03-1.35,0-2.52-.17-3.52-.52-1-.35-1.82-.83-2.45-1.45-.55-.51-1.01-1.17-1.4-1.97-.38-.8-.57-1.69-.57-2.66s.14-1.83.43-2.6.71-1.49,1.29-2.16c.5-.57,1.11-1.01,1.85-1.33.74-.31,1.5-.47,2.29-.47s1.48.12,2.08.35c.61.24,1.13.59,1.58,1.07.5.54.88,1.2,1.14,1.99.26.79.4,1.73.4,2.83ZM563.13,500.44c-.13-1.04-.49-1.86-1.07-2.45-.58-.59-1.34-.89-2.28-.89s-1.73.3-2.36.9-1.07,1.42-1.31,2.44h7.02Z"/>
    <path class="st1" d="M573.51,493.49h-2.22v-2.17h2.22v2.17ZM573.4,508.71h-1.99c0-.13.02-.96.03-2.49s.02-2.78.02-3.77c0-.87,0-1.82,0-2.86,0-1.04-.02-2.26-.04-3.65h1.99c-.02,1.21-.03,2.35-.04,3.4-.01,1.06-.02,2-.02,2.82,0,1.96,0,3.53.03,4.72.02,1.19.03,1.8.03,1.83Z"/>
    <path class="st1" d="M587.93,507.14l-.23,1.6c-.06,0-.2.02-.44.03-.23,0-.43.01-.6.01-1.72,0-3.03-.36-3.91-1.08-.88-.72-1.33-1.82-1.33-3.31,0-.93,0-1.94.02-3s.02-2.39.02-3.98h-2.12v-1.48h2.23v-2.99h1.83v2.99h4.52v1.48h-4.52c0,.18,0,.7-.02,1.58s-.02,1.52-.02,1.94v3.13c0,1.09.29,1.88.88,2.37.59.48,1.5.73,2.73.73.15,0,.33,0,.54,0s.34,0,.4,0Z"/>
    <path class="st1" d="M604.36,508.71h-1.93v-1.46h-.01c-.59.37-1.32.77-2.2,1.18s-1.74.61-2.59.61c-1.16,0-2.07-.34-2.73-1.04-.66-.69-.99-1.66-.99-2.9,0-.67,0-1.47.02-2.4s.02-1.61.02-2.03c0-.77-.01-1.71-.03-2.83-.02-1.12-.03-1.76-.03-1.9h1.99c0,.11,0,.72-.03,1.82-.02,1.1-.03,1.98-.03,2.64,0,.58,0,1.3.01,2.17,0,.87.01,1.48.01,1.84.02.99.19,1.72.52,2.18s.86.69,1.59.69,1.57-.2,2.47-.61c.9-.4,1.55-.76,1.98-1.06,0-.1,0-.57.01-1.4,0-.83.01-1.86.01-3.1,0-.88,0-1.94-.03-3.17-.02-1.23-.03-1.9-.03-2.01h1.99c0,.14,0,.62-.03,1.42-.02.8-.03,2.17-.03,4.11,0,1.09,0,2.04.01,2.86s.02,2.28.04,4.39Z"/>
    <path class="st1" d="M622.3,508.71h-1.99c0-.24.02-1.01.03-2.33s.02-2.14.02-2.45c0-.44,0-1.08,0-1.94,0-.85-.01-1.48-.02-1.88-.03-.97-.21-1.66-.55-2.08-.35-.42-.94-.63-1.79-.63-.51,0-1.15.15-1.91.45-.76.3-1.52.69-2.3,1.16,0,.09,0,.59-.01,1.5,0,.91-.01,1.74-.01,2.49,0,.98,0,2.15.03,3.53.02,1.38.03,2.1.03,2.17h-1.99c0-.06,0-.57.03-1.55s.03-2.42.03-4.34c0-.88,0-1.92,0-3.1,0-1.19-.02-2.45-.04-3.79h1.97v1.45s0,.03,0,.03c1.18-.67,2.16-1.14,2.95-1.41.79-.27,1.44-.4,1.96-.4,1.08,0,1.94.34,2.59,1.02s.98,1.6.98,2.78c0,1.06,0,1.97-.02,2.75-.01.77-.02,1.39-.02,1.87,0,.77.01,1.72.03,2.87.02,1.15.03,1.75.03,1.81Z"/>
    <path class="st1" d="M639.35,495.82c0,.19,0,1.02-.02,2.5-.01,1.48-.02,2.89-.02,4.23,0,.91,0,1.83.01,2.78,0,.94.01,1.8.01,2.59,0,1.44-.25,2.57-.74,3.38-.49.82-1.19,1.47-2.1,1.96-.71.37-1.59.66-2.61.88s-2.27.32-3.74.32l-.2-1.6c.98-.02,1.87-.07,2.65-.16.78-.09,1.49-.25,2.13-.49.98-.37,1.67-.86,2.06-1.47.39-.61.59-1.35.61-2.23h-.61c-1,0-2.03-.12-3.09-.36-1.06-.24-1.96-.62-2.71-1.14-.74-.5-1.34-1.14-1.8-1.94s-.69-1.79-.69-2.97.32-2.22.97-3.12c.65-.9,1.51-1.62,2.6-2.15.77-.38,1.62-.64,2.53-.79.91-.15,2.02-.22,3.31-.22h1.45ZM637.41,502.53c0-.6,0-1.36,0-2.27,0-.91-.01-1.85-.03-2.84h-.33c-.78,0-1.47.05-2.05.15-.58.1-1.2.29-1.85.57-.86.37-1.51.91-1.97,1.63-.45.71-.68,1.52-.68,2.42s.23,1.71.68,2.37,1.05,1.16,1.81,1.53c.51.24,1.11.44,1.79.59.68.15,1.39.23,2.15.23h.47c0-.1,0-.57.01-1.41,0-.84.01-1.83.01-2.97Z"/>
  </g>
</svg>
