<?xml version="1.0" encoding="UTF-8"?>
<svg id="Ebene_1" xmlns="http://www.w3.org/2000/svg" version="1.1" viewBox="0 0 841.89 595.28">
  <!-- Generator: Adobe Illustrator 30.4.0, SVG Export Plug-In . SVG Version: 2.1.4 Build 226)  -->
  <defs>
    <style>
      .st0 {
        fill: #827d87;
      }

      .st1 {
        fill: #c8a56e;
      }
    </style>
  </defs>
  <g>
    <path class="st0" d="M323.54,379.73c-.13,0-3.95-.02-5.85-.02-.02,1.63,0,13.83,0,14.3h-1.97c.02-.48.05-12.61.03-14.3-1.69,0-5.75.02-5.85.02v-1.65h13.65v1.65Z"/>
    <path class="st0" d="M330.54,394.01h-1.88c0-.13.02-10.74,0-12.06h1.88c-.02,1.14,0,12.03,0,12.06M330.64,379.63h-2.1v-2.05h2.1v2.05Z"/>
    <path class="st0" d="M345.15,386.2c-.13-.99-.46-1.76-1.01-2.32s-1.26-.84-2.15-.84-1.63.28-2.23.85c-.59.57-1.01,1.34-1.24,2.31h6.63ZM347,387.54h-8.62c0,.84.18,1.62.54,2.32.35.7.88,1.29,1.61,1.75.46.29.98.51,1.57.66.59.15,1.3.22,2.12.22.45,0,.87-.01,1.25-.04s.61-.04.7-.05l-.21,1.59c-.06,0-.27.02-.63.04-.36.02-.78.03-1.26.03-1.27,0-2.38-.16-3.32-.49-.94-.33-1.71-.78-2.32-1.36-.52-.48-.96-1.1-1.32-1.86-.36-.75-.54-1.59-.54-2.52s.14-1.72.41-2.46.68-1.41,1.22-2.04c.47-.54,1.05-.96,1.74-1.25.7-.29,1.42-.44,2.16-.44s1.39.11,1.97.33c.57.22,1.07.56,1.49,1.01.47.51.83,1.13,1.07,1.88.25.74.37,1.64.38,2.68"/>
    <path class="st0" d="M359.81,383.35c-.44.1-1.11.32-2.01.66s-1.94.78-3.12,1.34c0,.09,0,.49-.01,1.2,0,.71-.01,1.37-.01,1.98,0,.94,0,2.05.03,3.34.02,1.29.03,2,.03,2.15h-1.88c0-.14,0-.58.02-1.34s.02-2.04.02-3.87c0-.74,0-1.77-.01-3.1,0-1.33-.02-2.58-.04-3.76h1.85v1.81h.01c.9-.5,1.78-.94,2.66-1.31.87-.37,1.57-.63,2.1-.76l.36,1.67Z"/>
    <path class="st0" d="M374.77,393.77l-1.13,1.04c-1.76-1.79-3.32-3.35-4.7-4.67-1.38-1.33-2.14-2.06-2.28-2.19v-.02c.19-.18,1.03-1.02,2.51-2.54,1.48-1.51,2.68-2.75,3.59-3.72l1.15,1.19-4.92,4.8,5.79,6.12ZM366.79,394.01h-1.88c0-.14.02-15.7,0-17.47h1.88c-.02,1.41,0,17.34,0,17.47"/>
    <path class="st0" d="M389.1,388.06c0-.75-.12-1.47-.36-2.18-.24-.71-.62-1.3-1.13-1.79-.31-.3-.68-.53-1.1-.7-.43-.16-.87-.24-1.33-.24-.55,0-1.03.09-1.43.26-.41.17-.79.45-1.14.82-.42.43-.75.98-1,1.65-.24.67-.36,1.36-.36,2.07,0,.81.12,1.56.37,2.24.25.68.65,1.27,1.19,1.76.31.28.67.49,1.07.64.41.15.83.22,1.29.22.5,0,.97-.09,1.4-.26.43-.17.81-.43,1.14-.76.45-.46.8-1.02,1.04-1.67.24-.65.36-1.34.36-2.05M391.01,387.98c0,.92-.16,1.8-.49,2.65s-.8,1.56-1.42,2.16c-.52.5-1.11.88-1.75,1.14s-1.36.39-2.18.39c-.76,0-1.48-.13-2.15-.39-.67-.26-1.26-.64-1.79-1.14-.6-.58-1.07-1.3-1.4-2.15-.33-.85-.49-1.75-.49-2.69s.14-1.75.42-2.52c.28-.77.72-1.46,1.32-2.07.53-.56,1.15-.98,1.86-1.28s1.45-.45,2.24-.45c.83,0,1.58.14,2.25.41.67.28,1.27.69,1.79,1.23.6.63,1.05,1.34,1.35,2.12.29.78.44,1.64.44,2.58"/>
    <path class="st0" d="M414.07,394.01h-1.88c0-.09.02-.64.03-1.67s.02-1.99.02-2.9c0-.36,0-.94,0-1.76,0-.82,0-1.43-.02-1.83-.02-.95-.21-1.61-.57-1.98-.35-.36-.9-.55-1.64-.55-.44,0-.96.11-1.56.32-.6.22-1.28.55-2.03,1.01,0,.04,0,.12,0,.24,0,.12,0,.27,0,.46,0,.64,0,1.3-.01,1.96,0,.66-.01,1.3-.01,1.9,0,1.32,0,2.43.03,3.32.02.9.03,1.38.03,1.46h-1.88c0-.09,0-.57.03-1.44.01-.87.02-1.91.02-3.1,0-.4,0-1,0-1.81s0-1.4-.02-1.78c0-.35-.04-.68-.1-1-.06-.32-.16-.59-.31-.81-.17-.25-.38-.43-.64-.55-.26-.12-.64-.18-1.12-.18-.45,0-.97.13-1.56.39-.6.26-1.28.63-2.05,1.12,0,.14,0,.64-.01,1.52,0,.88-.01,1.59-.01,2.15,0,.94,0,2.08.03,3.4.02,1.32.03,2.02.03,2.1h-1.88c0-.06,0-.53.02-1.39.02-.86.02-2.29.02-4.29,0-.65,0-1.53,0-2.63,0-1.1-.02-2.36-.04-3.76h1.86v1.37s0,.01,0,.01c.53-.38,1.2-.76,2.01-1.13.81-.37,1.52-.56,2.14-.56.78,0,1.43.16,1.95.49.52.33.89.74,1.11,1.24h.02c.91-.56,1.75-.99,2.52-1.29.77-.29,1.42-.44,1.96-.44,1.1,0,1.95.32,2.57.96s.92,1.5.92,2.59c0,.84,0,1.55-.02,2.13-.01.58-.02,1.19-.02,1.83,0,1.34,0,2.46.03,3.39.02.92.03,1.41.03,1.48"/>
    <path class="st0" d="M438.14,394.01h-1.88c0-.09.02-.64.03-1.67s.02-1.99.02-2.9c0-.36,0-.94,0-1.76,0-.82,0-1.43-.02-1.83-.02-.95-.21-1.61-.57-1.98-.35-.36-.9-.55-1.64-.55-.44,0-.96.11-1.56.32-.6.22-1.28.55-2.03,1.01,0,.04,0,.12,0,.24,0,.12,0,.27,0,.46,0,.64,0,1.3-.01,1.96,0,.66-.01,1.3-.01,1.9,0,1.32,0,2.43.03,3.32.02.9.03,1.38.03,1.46h-1.88c0-.09,0-.57.03-1.44.01-.87.02-1.91.02-3.1,0-.4,0-1,0-1.81,0-.81,0-1.4-.02-1.78,0-.35-.04-.68-.1-1-.06-.32-.16-.59-.31-.81-.17-.25-.38-.43-.64-.55-.26-.12-.64-.18-1.12-.18-.45,0-.97.13-1.56.39-.6.26-1.28.63-2.05,1.12,0,.14,0,.64-.01,1.52,0,.88-.01,1.59-.01,2.15,0,.94,0,2.08.03,3.4.02,1.32.03,2.02.03,2.1h-1.88c0-.06,0-.53.02-1.39s.02-2.29.02-4.29c0-.65,0-1.53,0-2.63,0-1.1-.02-2.36-.04-3.76h1.86v1.37s0,.01,0,.01c.53-.38,1.2-.76,2.01-1.13.81-.37,1.52-.56,2.14-.56.78,0,1.43.16,1.95.49.52.33.89.74,1.11,1.24h.02c.91-.56,1.75-.99,2.52-1.29.77-.29,1.42-.44,1.96-.44,1.1,0,1.95.32,2.57.96s.92,1.5.92,2.59c0,.84,0,1.55-.02,2.13-.01.58-.02,1.19-.02,1.83,0,1.34,0,2.46.03,3.39.02.92.03,1.41.03,1.48"/>
    <path class="st0" d="M454.94,394.01h-1.82v-1.38h-.01c-.56.35-1.25.73-2.08,1.11-.83.39-1.65.58-2.45.58-1.1,0-1.96-.33-2.57-.98-.62-.65-.93-1.57-.93-2.74,0-.64,0-1.39.02-2.27.01-.88.02-1.52.02-1.92,0-.72,0-1.61-.03-2.67-.02-1.06-.03-1.66-.03-1.8h1.88c0,.11,0,.68-.02,1.72-.02,1.04-.02,1.87-.02,2.49,0,.55,0,1.23.01,2.05s.01,1.4.01,1.74c.02.94.18,1.63.49,2.06.31.44.81.66,1.5.66s1.48-.19,2.33-.57c.85-.38,1.47-.72,1.87-1,0-.1,0-.53.01-1.32,0-.78.01-1.76.01-2.93,0-.83,0-1.83-.03-3-.02-1.16-.03-1.8-.03-1.9h1.88c0,.14,0,.58-.02,1.34-.02.76-.02,2.05-.02,3.88,0,1.03,0,1.93.01,2.7s.02,2.16.04,4.14"/>
    <path class="st0" d="M471.88,394.01h-1.88c0-.22.02-.96.03-2.21.01-1.25.02-2.02.02-2.31,0-.41,0-1.02,0-1.83s0-1.39-.02-1.77c-.02-.91-.2-1.57-.52-1.96-.33-.4-.89-.6-1.69-.6-.48,0-1.08.14-1.8.43-.72.28-1.44.65-2.17,1.1,0,.09,0,.56-.01,1.42,0,.86-.01,1.64-.01,2.35,0,.92,0,2.03.03,3.34.02,1.3.03,1.99.03,2.05h-1.88c0-.06,0-.54.03-1.46.01-.92.02-2.28.02-4.09,0-.83,0-1.81,0-2.93,0-1.12-.02-2.31-.04-3.58h1.86v1.37s0,.02,0,.02c1.11-.64,2.04-1.08,2.78-1.33.74-.25,1.36-.38,1.85-.38,1.02,0,1.83.32,2.45.96s.92,1.51.92,2.63c0,1,0,1.86-.02,2.59-.01.73-.02,1.32-.02,1.77,0,.72,0,1.63.03,2.71.02,1.08.03,1.66.03,1.71"/>
    <path class="st0" d="M480.87,394.01h-1.88c0-.13.02-.91.03-2.35.01-1.44.02-2.63.02-3.56,0-.82,0-1.72,0-2.7,0-.98-.02-2.13-.04-3.45h1.88c-.02,1.14-.03,2.22-.04,3.21-.01,1-.02,1.89-.02,2.66,0,1.85,0,3.34.03,4.46.02,1.12.03,1.7.03,1.73M480.98,379.63h-2.1v-2.05h2.1v2.05Z"/>
    <path class="st0" d="M498.08,393.77l-1.13,1.04c-1.76-1.79-3.32-3.35-4.7-4.67-1.38-1.33-2.14-2.06-2.28-2.19v-.02c.19-.18,1.03-1.02,2.51-2.54,1.48-1.51,2.68-2.75,3.59-3.72l1.15,1.19-4.92,4.8,5.79,6.12ZM490.11,394.01h-1.88c0-.14.02-15.7,0-17.47h1.88c-.02,1.41,0,17.34,0,17.47"/>
    <path class="st0" d="M510,390.09v-1.03c0-.41,0-.89-.01-1.43-.35.02-.96.09-1.84.21-.87.12-1.61.3-2.21.53-.45.17-.84.42-1.19.75-.35.33-.52.75-.52,1.24,0,.54.15.98.44,1.31.29.33.7.58,1.2.76.39.14.82.23,1.29.29.47.06.97.09,1.5.09.16,0,.35,0,.58-.01.23,0,.47-.02.73-.02,0-.06,0-.32,0-.79s0-1.1,0-1.9M511.82,387.21c0,1.97,0,3.58-.01,4.82,0,1.24-.01,1.91-.01,2-.08,0-.45.04-1.11.09-.66.05-1.51.08-2.55.08-.65,0-1.31-.06-1.97-.18-.66-.12-1.23-.29-1.7-.51-.64-.29-1.15-.7-1.54-1.2-.39-.51-.59-1.12-.59-1.84,0-.75.23-1.41.7-1.96.46-.55,1.11-1,1.94-1.34.52-.21,1.21-.41,2.07-.58.86-.17,1.85-.3,2.95-.39-.05-.62-.2-1.13-.46-1.53-.26-.4-.65-.7-1.16-.91-.35-.14-.74-.24-1.17-.3-.43-.06-.93-.09-1.5-.09-.36,0-.66,0-.91.02-.25.02-.59.04-1.02.06l.19-1.59c.12,0,.36-.02.71-.04.35-.02.84-.03,1.45-.03.94,0,1.77.1,2.51.29.74.19,1.35.51,1.83.95.45.41.79.92,1.03,1.53s.35,1.49.35,2.64"/>
    <path class="st0" d="M525.32,392.53l-.21,1.51c-.06,0-.19.02-.41.02s-.41.01-.57.01c-1.63,0-2.86-.34-3.7-1.02-.83-.68-1.25-1.72-1.25-3.13,0-.88,0-1.83.02-2.84.01-1.01.02-2.26.02-3.76h-2v-1.39h2.11v-2.83h1.73v2.83h4.27v1.39h-4.27c0,.17,0,.66-.02,1.49-.01.82-.02,1.44-.02,1.84v2.95c0,1.03.28,1.78.83,2.24.56.46,1.41.69,2.57.69.14,0,.31,0,.51,0s.33,0,.38,0"/>
    <path class="st0" d="M533.03,394.01h-1.88c0-.13.02-.91.03-2.35.01-1.44.02-2.63.02-3.56,0-.82,0-1.72,0-2.7,0-.98-.02-2.13-.04-3.45h1.88c-.02,1.14-.03,2.22-.04,3.21-.01,1-.02,1.89-.02,2.66,0,1.85,0,3.34.03,4.46.02,1.12.03,1.7.03,1.73M533.14,379.63h-2.1v-2.05h2.1v2.05Z"/>
    <path class="st0" d="M548.89,388.06c0-.75-.12-1.47-.36-2.18-.24-.71-.62-1.3-1.13-1.79-.31-.3-.68-.53-1.1-.7-.43-.16-.87-.24-1.33-.24-.55,0-1.03.09-1.43.26-.4.17-.79.45-1.14.82-.42.43-.75.98-1,1.65-.24.67-.36,1.36-.36,2.07,0,.81.12,1.56.37,2.24.25.68.64,1.27,1.19,1.76.31.28.67.49,1.07.64.41.15.83.22,1.29.22.5,0,.97-.09,1.4-.26.43-.17.81-.43,1.14-.76.45-.46.8-1.02,1.04-1.67.24-.65.36-1.34.36-2.05M550.8,387.98c0,.92-.17,1.8-.49,2.65-.33.84-.81,1.56-1.42,2.16-.52.5-1.11.88-1.75,1.14s-1.36.39-2.18.39c-.76,0-1.48-.13-2.15-.39s-1.26-.64-1.79-1.14c-.6-.58-1.07-1.3-1.4-2.15-.33-.85-.49-1.75-.49-2.69s.14-1.75.42-2.52c.28-.77.72-1.46,1.32-2.07.53-.56,1.15-.98,1.86-1.28s1.45-.45,2.24-.45c.83,0,1.58.14,2.25.41.67.28,1.27.69,1.79,1.23.61.63,1.06,1.34,1.35,2.12.29.78.44,1.64.44,2.58"/>
    <path class="st0" d="M566.67,394.01h-1.88c0-.22.02-.96.03-2.21.01-1.25.02-2.02.02-2.31,0-.41,0-1.02,0-1.83,0-.81-.01-1.39-.02-1.77-.02-.91-.2-1.57-.52-1.96-.33-.4-.89-.6-1.69-.6-.48,0-1.08.14-1.8.43-.72.28-1.44.65-2.17,1.1,0,.09,0,.56,0,1.42,0,.86-.01,1.64-.01,2.35,0,.92,0,2.03.03,3.34.02,1.3.03,1.99.03,2.05h-1.88c0-.06,0-.54.02-1.46.02-.92.02-2.28.02-4.09,0-.83,0-1.81,0-2.93,0-1.12-.02-2.31-.04-3.58h1.86v1.37s0,.02,0,.02c1.11-.64,2.04-1.08,2.78-1.33.75-.25,1.36-.38,1.85-.38,1.02,0,1.83.32,2.45.96s.92,1.51.92,2.63c0,1,0,1.86-.02,2.59-.01.73-.02,1.32-.02,1.77,0,.72,0,1.63.03,2.71.02,1.08.03,1.66.03,1.71"/>
    <path class="st0" d="M590.58,381.8c0-.81-.25-1.46-.77-1.95-.51-.49-1.21-.73-2.09-.73-.81,0-1.49.23-2.04.7s-.83,1.07-.83,1.81c0,.61.29,1.22.86,1.84.58.61,1.44,1.36,2.59,2.24h.02c.85-.71,1.43-1.37,1.76-1.99.32-.62.48-1.26.48-1.92M591.48,390.37v-.02c-.68-.53-1.52-1.18-2.49-1.95-.98-.76-2-1.57-3.08-2.43h-.02c-.85.81-1.4,1.51-1.65,2.08-.25.58-.37,1.2-.37,1.85,0,.89.31,1.6.93,2.12.62.52,1.37.79,2.25.79s1.72-.22,2.43-.66c.7-.44,1.37-1.03,2-1.77M597.69,392.86l-1.03,1.38-3.93-3.01h-.03c-1.02,1.13-1.96,1.94-2.84,2.42-.87.48-1.83.72-2.86.72-1.47,0-2.69-.41-3.65-1.22-.97-.81-1.45-1.89-1.45-3.25,0-.93.28-1.81.83-2.65.56-.84,1.24-1.57,2.04-2.19v-.02c-.6-.49-1.06-1.02-1.36-1.57-.31-.56-.46-1.17-.46-1.84,0-1.15.49-2.11,1.47-2.88.98-.77,2.09-1.15,3.32-1.15,1.4,0,2.53.36,3.4,1.09.87.72,1.31,1.69,1.31,2.91,0,.85-.24,1.67-.73,2.45-.49.78-1.26,1.63-2.3,2.52v.03c.51.41,1.09.87,1.73,1.38.65.5,1.08.85,1.32,1.03h.02c.81-1.09,1.55-2.18,2.23-3.28.67-1.1,1.04-1.69,1.09-1.78l1.46.95c-.13.19-.61.88-1.44,2.07-.83,1.19-1.55,2.16-2.14,2.93v.02l3.99,2.94Z"/>
    <path class="st0" d="M621.63,389.37c0-.41-.07-.77-.21-1.09-.14-.32-.36-.63-.64-.92-.27-.27-.64-.49-1.11-.66-.47-.17-.99-.25-1.54-.25-.45,0-.8,0-1.08.01s-.45.01-.54.01l-.19-1.43c.59-.02,1.11-.09,1.56-.21.45-.12.85-.31,1.2-.55.33-.24.61-.54.82-.91.21-.37.32-.78.32-1.25,0-.48-.12-.9-.36-1.26-.24-.35-.56-.63-.98-.84-.35-.17-.78-.29-1.29-.38-.51-.09-1.05-.13-1.63-.13-.37,0-.72,0-1.03.02-.31.01-.51.02-.6.02-.02,1.16-.04,2.39-.04,3.69,0,1.3,0,2.25,0,2.84,0,1.37,0,2.74.02,4.12,0,1.38.02,2.12.02,2.21.16,0,.37.02.64.03.26.01.52.02.77.02.91,0,1.76-.05,2.54-.14.78-.1,1.44-.29,1.98-.6.45-.25.79-.57,1.03-.97.24-.4.36-.86.36-1.39M623.66,389.31c0,.79-.2,1.51-.61,2.15-.41.64-1,1.16-1.78,1.56-.69.36-1.45.62-2.27.78-.83.16-1.77.24-2.84.24-.78,0-1.59-.01-2.42-.04-.83-.03-1.29-.05-1.39-.06.02-1.52.04-2.96.05-4.32,0-1.36.01-2.65.01-3.88,0-2.34-.01-4.19-.03-5.55-.02-1.36-.03-2.07-.03-2.13.11,0,.55-.03,1.32-.06.76-.03,1.51-.05,2.23-.05.82,0,1.57.05,2.26.16.69.11,1.27.26,1.75.45.72.28,1.29.7,1.7,1.23.41.53.62,1.19.62,1.97s-.26,1.54-.78,2.17c-.52.63-1.11,1.06-1.77,1.29v.12c.55.05,1.08.18,1.59.39.51.21.97.51,1.36.9.34.34.6.72.77,1.13.17.41.26.92.26,1.53"/>
    <path class="st0" d="M637.47,386.2c-.13-.99-.46-1.76-1.01-2.32-.54-.56-1.26-.84-2.15-.84s-1.63.28-2.23.85c-.59.57-1.01,1.34-1.24,2.31h6.63ZM639.32,387.54h-8.62c0,.84.18,1.62.53,2.32.35.7.89,1.29,1.61,1.75.46.29.99.51,1.57.66.59.15,1.3.22,2.12.22.45,0,.87-.01,1.25-.04s.61-.04.7-.05l-.21,1.59c-.06,0-.27.02-.63.04-.36.02-.78.03-1.26.03-1.27,0-2.38-.16-3.32-.49-.94-.33-1.71-.78-2.32-1.36-.52-.48-.96-1.1-1.32-1.86s-.54-1.59-.54-2.52.14-1.72.41-2.46c.27-.73.68-1.41,1.22-2.04.47-.54,1.05-.96,1.75-1.25.69-.29,1.41-.44,2.16-.44s1.4.11,1.97.33c.57.22,1.07.56,1.49,1.01.47.51.83,1.13,1.07,1.88.25.74.37,1.64.38,2.68"/>
    <path class="st0" d="M652.45,388.17c0-.57,0-1.29,0-2.14,0-.86-.01-1.75-.03-2.68h-.31c-.74,0-1.38.05-1.94.14-.55.1-1.13.27-1.75.53-.81.35-1.43.86-1.86,1.54-.43.68-.64,1.44-.64,2.29s.21,1.62.64,2.24c.43.62,1,1.1,1.71,1.44.48.23,1.05.42,1.69.56.64.14,1.32.21,2.03.21h.44c0-.1,0-.54.01-1.33,0-.79.01-1.72.01-2.81M654.27,381.84c0,.17,0,.96-.02,2.36s-.02,2.73-.02,3.99c0,.86,0,1.73.01,2.62,0,.89.01,1.7.01,2.45,0,1.36-.23,2.42-.7,3.19-.46.77-1.13,1.39-1.98,1.85-.68.35-1.5.63-2.47.83-.97.2-2.14.3-3.53.3l-.19-1.51c.93-.02,1.76-.07,2.5-.15.74-.08,1.41-.24,2.01-.46.93-.35,1.58-.81,1.94-1.39.37-.58.56-1.28.57-2.1h-.57c-.95,0-1.92-.11-2.92-.34-1-.23-1.86-.58-2.56-1.08-.7-.47-1.27-1.08-1.7-1.83-.44-.76-.66-1.69-.66-2.8s.31-2.09.92-2.94c.61-.85,1.43-1.53,2.46-2.03.73-.36,1.53-.61,2.39-.75.86-.14,1.91-.21,3.13-.21h1.37Z"/>
    <path class="st0" d="M663.3,394.01h-1.88c0-.1.02-1.26.03-3.49.01-2.23.02-4.08.02-5.55,0-.94,0-2.14,0-3.58,0-1.44-.02-3.06-.04-4.86h1.88c-.02,1.22-.03,2.64-.04,4.25s-.01,2.97-.01,4.07c0,2.41,0,4.51.02,6.32.02,1.8.02,2.75.02,2.84"/>
    <path class="st0" d="M677.93,386.2c-.13-.99-.46-1.76-1.01-2.32-.54-.56-1.26-.84-2.15-.84s-1.63.28-2.23.85c-.59.57-1.01,1.34-1.24,2.31h6.63ZM679.77,387.54h-8.62c0,.84.18,1.62.53,2.32.35.7.89,1.29,1.61,1.75.46.29.99.51,1.57.66.59.15,1.3.22,2.12.22.45,0,.87-.01,1.25-.04s.61-.04.7-.05l-.21,1.59c-.06,0-.27.02-.63.04-.36.02-.78.03-1.26.03-1.27,0-2.38-.16-3.32-.49-.94-.33-1.71-.78-2.32-1.36-.52-.48-.96-1.1-1.32-1.86s-.54-1.59-.54-2.52.14-1.72.41-2.46c.27-.73.68-1.41,1.21-2.04.47-.54,1.05-.96,1.75-1.25.69-.29,1.41-.44,2.16-.44s1.39.11,1.97.33c.57.22,1.07.56,1.49,1.01.47.51.83,1.13,1.07,1.88.25.74.37,1.64.38,2.68"/>
    <path class="st0" d="M687.62,394.01h-1.88c0-.13.02-.91.03-2.35.01-1.44.02-2.63.02-3.56,0-.82,0-1.72,0-2.7,0-.98-.02-2.13-.04-3.45h1.88c-.02,1.14-.03,2.22-.04,3.21-.01,1-.02,1.89-.02,2.66,0,1.85,0,3.34.03,4.46s.03,1.7.03,1.73M687.73,379.63h-2.1v-2.05h2.1v2.05Z"/>
    <path class="st0" d="M701.34,392.53l-.21,1.51c-.06,0-.19.02-.41.02-.22,0-.41.01-.57.01-1.63,0-2.86-.34-3.7-1.02-.83-.68-1.25-1.72-1.25-3.13,0-.88,0-1.83.02-2.84.01-1.01.02-2.26.02-3.76h-2v-1.39h2.11v-2.83h1.73v2.83h4.27v1.39h-4.27c0,.17,0,.66-.02,1.49-.01.82-.02,1.44-.02,1.84v2.95c0,1.03.28,1.78.83,2.24.56.46,1.41.69,2.57.69.14,0,.31,0,.51,0,.2,0,.33,0,.38,0"/>
    <path class="st0" d="M716.87,394.01h-1.82v-1.38h-.01c-.56.35-1.25.73-2.08,1.11s-1.65.58-2.45.58c-1.1,0-1.95-.33-2.57-.98-.62-.65-.93-1.57-.93-2.74,0-.64,0-1.39.02-2.27.01-.88.02-1.52.02-1.92,0-.72,0-1.61-.03-2.67-.02-1.06-.03-1.66-.03-1.8h1.88c0,.11,0,.68-.02,1.72-.02,1.04-.03,1.87-.03,2.49,0,.55,0,1.23.01,2.05,0,.82.01,1.4.01,1.74.01.94.18,1.63.49,2.06.31.44.81.66,1.5.66s1.48-.19,2.33-.57c.85-.38,1.47-.72,1.87-1,0-.1,0-.53.01-1.32,0-.78.01-1.76.01-2.93,0-.83,0-1.83-.03-3-.02-1.16-.03-1.8-.03-1.9h1.88c0,.14,0,.58-.02,1.34-.02.76-.02,2.05-.02,3.88,0,1.03,0,1.93.01,2.7s.02,2.16.04,4.14"/>
    <path class="st0" d="M733.81,394.01h-1.88c0-.22.02-.96.03-2.21.01-1.25.02-2.02.02-2.31,0-.41,0-1.02,0-1.83,0-.81-.01-1.39-.02-1.77-.02-.91-.2-1.57-.52-1.96-.33-.4-.89-.6-1.69-.6-.48,0-1.08.14-1.8.43-.72.28-1.44.65-2.17,1.1,0,.09,0,.56,0,1.42,0,.86-.01,1.64-.01,2.35,0,.92,0,2.03.03,3.34.02,1.3.03,1.99.03,2.05h-1.88c0-.06,0-.54.02-1.46.02-.92.02-2.28.02-4.09,0-.83,0-1.81,0-2.93,0-1.12-.02-2.31-.04-3.58h1.86v1.37s0,.02,0,.02c1.11-.64,2.04-1.08,2.78-1.33.75-.25,1.36-.38,1.85-.38,1.02,0,1.83.32,2.45.96s.92,1.51.92,2.63c0,1,0,1.86-.02,2.59-.01.73-.02,1.32-.02,1.77,0,.72,0,1.63.03,2.71.02,1.08.03,1.66.03,1.71"/>
    <path class="st0" d="M748.08,388.17c0-.57,0-1.29,0-2.14,0-.86-.01-1.75-.03-2.68h-.31c-.74,0-1.38.05-1.94.14-.55.1-1.13.27-1.75.53-.81.35-1.43.86-1.86,1.54-.43.68-.64,1.44-.64,2.29s.21,1.62.64,2.24c.43.62,1,1.1,1.71,1.44.48.23,1.05.42,1.69.56.64.14,1.32.21,2.03.21h.44c0-.1,0-.54.01-1.33,0-.79.01-1.72.01-2.81M749.9,381.84c0,.17,0,.96-.02,2.36s-.02,2.73-.02,3.99c0,.86,0,1.73.01,2.62,0,.89.01,1.7.01,2.45,0,1.36-.23,2.42-.7,3.19-.46.77-1.13,1.39-1.98,1.85-.68.35-1.5.63-2.47.83-.97.2-2.14.3-3.53.3l-.19-1.51c.93-.02,1.76-.07,2.5-.15.74-.08,1.41-.24,2.01-.46.93-.35,1.58-.81,1.94-1.39.37-.58.56-1.28.57-2.1h-.57c-.95,0-1.92-.11-2.92-.34-1-.23-1.86-.58-2.56-1.08-.7-.47-1.27-1.08-1.7-1.83-.44-.76-.66-1.69-.66-2.8s.31-2.09.92-2.94c.61-.85,1.43-1.53,2.46-2.03.73-.36,1.53-.61,2.39-.75.86-.14,1.91-.21,3.13-.21h1.37Z"/>
    <path class="st0" d="M313.8,343.92h-3.75v-.35c0-1.52.01-4.22.04-8.11.02-3.89.04-9.48.04-16.77,0-2.86-.01-6.63-.04-11.3-.03-4.67-.04-9.53-.04-14.57v-.35h.35c1.7,0,3.73,0,6.1.02,2.37.01,4.89.02,7.58.02,4.03,0,7.34,0,9.95-.02,2.61-.01,4.11-.02,4.49-.02h.35v3.14h-.35c-.41,0-1.91,0-4.52-.02-2.61-.01-5.81-.02-9.61-.02-1.72,0-3.72,0-6,.02-2.03,0-3.56.02-4.59.02,0,2.81-.01,6.49-.04,11.02-.02,4.51-.04,8.02-.04,10.53.55,0,1.63,0,3.26.02,2.13.01,3.78.02,4.98.02,3.77,0,7.33,0,10.66-.02,3.33-.01,5.19-.02,5.57-.02h.35v3.18h-.35c-.46,0-2.58,0-6.37-.02-3.79-.01-7.18-.02-10.2-.02-.94,0-2.47,0-4.6.02-1.64,0-2.74.02-3.29.02,0,4.36.01,8.69.04,12.98.02,4.41.04,7.83.04,10.26v.35Z"/>
    <path class="st0" d="M464.37,307.6c-2.63,0-4.98.16-6.99.47-2,.31-4.16.99-6.42,2.01-2.5,1.14-4.71,2.86-6.58,5.11-1.85,2.23-2.79,5.1-2.79,8.55,0,3.23.76,6.01,2.27,8.26,1.52,2.26,3.55,4.08,6.05,5.41,1.66.89,3.72,1.61,6.12,2.13,2.41.52,5.09.79,7.96.79h.98c0-.73-.04-29.86-.04-32.72h-.56ZM442.71,361.2h-.3l-.04-2.99c2.68.03,5.39-.16,8.04-.55,2.64-.39,4.91-1.02,6.74-1.89,2.86-1.33,4.88-3.11,6.03-5.3,1.11-2.11,1.69-4.53,1.74-7.17h-1.31c-3.38,0-6.63-.4-9.64-1.19-3.02-.79-5.68-1.92-7.91-3.35-2.29-1.46-4.22-3.46-5.75-5.92-1.54-2.48-2.31-5.57-2.31-9.19s.98-6.78,2.92-9.42c1.92-2.63,4.42-4.76,7.41-6.35,2.04-1.1,4.4-1.93,6.99-2.47,2.58-.53,5.59-.8,8.94-.8h4.31v36.56c0,4.37-.7,7.85-2.08,10.35-1.38,2.5-3.38,4.53-5.92,6.02-1.95,1.15-4.42,2.06-7.36,2.7-2.93.64-6.45.96-10.48.96"/>
    <path class="st0" d="M533.45,307.82h-7.48v-2.99h7.48v-1.58c0-2.14.24-4.14.72-5.93.48-1.81,1.4-3.53,2.75-5.11,1.14-1.35,2.79-2.49,4.9-3.38,2.1-.89,4.44-1.34,6.96-1.34l2.27.03v2.95s-2.11,0-2.11,0c-1.75,0-3.45.29-5.05.87-1.59.57-2.92,1.42-3.97,2.51-1,1.04-1.75,2.32-2.24,3.79-.49,1.49-.74,3.53-.74,6.09v1.09h13.26v2.99h-13.26c0,8.08.08,36.09.08,36.09h-3.63l.08-36.09Z"/>
  </g>
  <rect class="st0" x="563.34" y="287.51" width="3.63" height="56.4"/>
  <g>
    <path class="st0" d="M596.68,298.1h-4.32v-4.32h4.32v4.32ZM609.86,298.1h-4.32v-4.32h4.32v4.32ZM596.93,344.71c-3.1,0-5.66-1.02-7.62-3.03-1.96-2.01-2.95-5.13-2.95-9.29v-27.55h3.63s-.04,25.44-.04,26.53c0,3.43.6,6.03,1.8,7.72,1.16,1.65,3.23,2.49,6.13,2.49,2.11,0,4.78-.74,7.93-2.19,3.05-1.41,5.24-2.61,6.5-3.56,0-.57-.04-30.99-.04-30.99h3.63v39.08h-3.56v-4.8c-1.43.93-3.57,2.06-6.37,3.36-3.2,1.48-6.24,2.24-9.04,2.24"/>
    <path class="st0" d="M637.54,344.11c-.85,0-1.88-.03-3.06-.1-1.17-.06-2.96-.2-2.96-.2l.03-3.22s1.72.15,2.78.21c2.26.14,5.24.19,8.36-.3,1.65-.26,2.84-.58,3.53-.97,1.32-.71,2.35-1.53,3.06-2.45.69-.9,1.05-2.09,1.05-3.54,0-1.11-.33-2.17-.97-3.13-.65-.98-1.61-1.87-2.86-2.65-.9-.57-2.29-1.29-4.14-2.12-1.88-.85-3.41-1.63-4.56-2.32-1.58-.93-2.86-2.13-3.81-3.54-.96-1.43-1.45-3.08-1.45-4.89s.44-3.38,1.31-4.75c.86-1.36,2.18-2.55,3.92-3.54,1.04-.6,2.41-1.08,4.07-1.42,1.65-.35,3.57-.52,5.71-.52,1.32,0,2.44.02,3.32.06.89.04,2.31.12,2.31.12v3.13s-1.7-.07-2.69-.1c-1-.03-2.1-.04-3.32-.04-1.69,0-3.2.12-4.47.36-1.26.23-2.39.63-3.37,1.19-1.08.65-1.9,1.43-2.44,2.31-.53.88-.8,1.86-.8,2.93,0,1.14.31,2.21.93,3.17.63.97,1.71,1.91,3.22,2.79.99.57,2.28,1.22,3.82,1.92,1.56.71,2.98,1.43,4.23,2.14,1.97,1.14,3.41,2.43,4.27,3.82.87,1.41,1.31,2.98,1.31,4.69s-.41,3.3-1.21,4.68c-.8,1.37-1.98,2.59-3.51,3.63-1.32.88-3,1.55-4.98,1.99-1.96.43-4.2.65-6.65.65"/>
    <path class="st0" d="M685.36,344.03c-4.61,0-8.14-1.15-10.48-3.43-2.35-2.27-3.55-5.77-3.55-10.38,0-3.14.08-18.83.08-22.33h-6.42v-2.99h6.53v-8.89h3.41v8.89h14.02v2.99h-14.02c0,.84-.07,15.67-.06,17.12.01,1.44.02,2.86.02,4.26,0,4.07.82,7.07,2.44,8.9,1.61,1.82,4.58,2.75,8.83,2.75.35,0,2.52-.04,2.52-.04v3.06s-2.85.08-3.32.08"/>
    <path class="st0" d="M749.83,343.92h-3.63v-39.08h3.64l-.04,6.23c2.45-1.51,5.31-2.96,8.51-4.31,3.42-1.44,5.92-2.39,7.45-2.83l.35-.1.82,3.2-.34.09c-1.47.4-3.83,1.26-7.01,2.57-3.12,1.28-6.41,2.96-9.79,5,0,.54.04,28.41.04,28.86v.35Z"/>
    <path class="st0" d="M703.49,319.69h24.29c-.43-4.29-1.63-7.5-3.57-9.55-1.99-2.09-4.6-3.16-7.78-3.16s-6.04,1.11-8.34,3.3c-2.24,2.13-3.78,5.29-4.6,9.4M722.14,344.03c-3.55,0-6.77-.52-9.58-1.54-2.82-1.03-5.25-2.55-7.2-4.53-1.72-1.78-3.1-3.92-4.1-6.39-1-2.46-1.51-5.06-1.51-7.73,0-3.09.37-5.74,1.08-7.88.72-2.15,1.99-4.31,3.79-6.44,1.49-1.78,3.27-3.16,5.29-4.1,2.01-.94,4.24-1.42,6.61-1.42,2.16,0,4.13.36,5.85,1.07,1.72.71,3.24,1.77,4.51,3.15,1.4,1.55,2.5,3.53,3.27,5.88.77,2.34,1.17,5.07,1.2,8.1v.36s-28.04,0-28.04,0c.03,3.33.51,6.18,1.42,8.48.93,2.36,2.76,4.56,5.43,6.53,1.45,1.08,3.25,1.92,5.33,2.49,2.1.57,4.41.8,6.88.86,3.95.1,5.64-.17,5.64-.17l-.08,2.89s-2.8.49-5.78.38"/>
    <path class="st0" d="M487.85,319.69h24.29c-.43-4.29-1.63-7.5-3.57-9.55-1.99-2.09-4.6-3.16-7.78-3.16s-6.04,1.11-8.34,3.3c-2.24,2.13-3.78,5.29-4.6,9.4M506.49,344.03c-3.55,0-6.77-.52-9.58-1.54-2.82-1.03-5.25-2.55-7.2-4.53-1.72-1.78-3.1-3.92-4.1-6.39-1-2.46-1.51-5.06-1.51-7.73,0-3.09.37-5.74,1.08-7.88.72-2.15,1.99-4.31,3.79-6.44,1.49-1.78,3.27-3.16,5.29-4.1,2.01-.94,4.24-1.42,6.61-1.42,2.16,0,4.13.36,5.85,1.07,1.72.71,3.24,1.77,4.51,3.15,1.4,1.55,2.5,3.53,3.27,5.88.77,2.34,1.17,5.07,1.2,8.1v.36s-28.04,0-28.04,0c.03,3.33.51,6.18,1.42,8.48.93,2.36,2.76,4.56,5.43,6.53,1.45,1.08,3.25,1.92,5.33,2.49,2.1.57,4.41.8,6.88.86,3.95.1,5.64-.17,5.64-.17l-.08,2.89s-2.8.49-5.78.38"/>
    <path class="st0" d="M398.91,319.69h24.29c-.43-4.29-1.63-7.5-3.57-9.55-1.99-2.09-4.6-3.16-7.78-3.16s-6.04,1.11-8.34,3.3c-2.24,2.13-3.78,5.29-4.6,9.4M417.55,344.03c-3.55,0-6.77-.52-9.58-1.54-2.82-1.03-5.25-2.55-7.2-4.53-1.72-1.78-3.1-3.92-4.1-6.39-1-2.46-1.51-5.06-1.51-7.73,0-3.09.37-5.74,1.08-7.88.72-2.15,1.99-4.31,3.79-6.44,1.49-1.78,3.27-3.16,5.29-4.1,2.01-.94,4.24-1.42,6.61-1.42,2.16,0,4.13.36,5.85,1.07,1.72.71,3.24,1.77,4.51,3.15,1.4,1.55,2.5,3.53,3.27,5.88.77,2.34,1.17,5.07,1.2,8.1v.36s-28.04,0-28.04,0c.03,3.33.51,6.18,1.42,8.48.93,2.36,2.76,4.56,5.43,6.53,1.45,1.08,3.25,1.92,5.33,2.49,2.1.57,4.41.8,6.88.86,3.95.1,5.64-.17,5.64-.17l-.08,2.89s-2.8.49-5.78.38"/>
    <path class="st0" d="M355.91,319.69h24.29c-.43-4.29-1.63-7.5-3.57-9.55-1.99-2.09-4.6-3.16-7.78-3.16s-6.04,1.11-8.34,3.3c-2.24,2.13-3.79,5.29-4.6,9.4M374.56,344.03c-3.55,0-6.77-.52-9.58-1.54-2.82-1.03-5.25-2.55-7.2-4.53-1.72-1.78-3.1-3.92-4.1-6.39-1-2.46-1.51-5.06-1.51-7.73,0-3.09.37-5.74,1.08-7.88.72-2.15,1.99-4.31,3.79-6.44,1.49-1.78,3.27-3.16,5.29-4.1,2.01-.94,4.24-1.42,6.61-1.42,2.16,0,4.13.36,5.85,1.07,1.72.71,3.24,1.77,4.51,3.15,1.4,1.55,2.5,3.53,3.27,5.88.77,2.34,1.17,5.07,1.2,8.1v.36s-28.04,0-28.04,0c.03,3.33.51,6.18,1.42,8.48.93,2.36,2.76,4.56,5.43,6.53,1.45,1.08,3.25,1.92,5.33,2.49,2.1.57,4.41.8,6.88.86,3.95.1,5.64-.17,5.64-.17l-.08,2.89s-2.8.49-5.78.38"/>
    <path class="st0" d="M263.92,305.59c5.58-13.61,5.12-28.91,3.87-35.62-1.6-8.58-5.52-16.44-11.01-23.16-4-4.89-8.83-8.95-14.39-11.89-7.05-3.73-14.72-4.88-22.71-3.39,2.38-1.23,4.95-1.69,7.6-1.97,6.08-.64,12.1.26,17.82,2.41,12.75,4.78,22.68,15.15,28.17,27.49,2.39,5.36,4.1,10.84,4.97,16.66,2.52,16.9-1.82,33.11-8.91,48.39-1.55,3.34-3.04,6.59-5,9.57,0,0,6.25-13.31-.41-28.49"/>
    <path class="st1" d="M171.92,305.15c.44-2.62,3.05-3.16,5.57-3.78,1.27-.31,2.82-.95,2.94-1.79.04-.26-.15-.81-.35-1.08-2.64-3.73-4.73-7.68-5.96-12.07-.79-2.82-.69-5.48.13-8.27l1.73-5.87c2.16-7.32.15-15.93-3.28-22.69l-3.44-6.78c.32,3.39-.08,6.66-1.27,9.92-3.59,9.91-12.36,16.24-22.07,19.94-6.42,2.45-13.53,3.36-20.48,5.59-5.68,1.82-11.46,4.82-15.81,8.92-7.4,6.99-11.83,16.82-10.99,26.99,1.26,15.25,7.06,22.47,9.45,25.9-1.32-2.71-2.61-5.16-3.69-7.96-2.22-5.75-3.55-11.73-3.44-17.95.14-8.29,3.12-16.14,8.65-22.27,5.73-6.36,13.9-10.14,22.1-12.31,3.27-.87,6.31-1.91,9.92-2.47-5.4,3.63-10.24,7.26-14.4,12.04-2.97,3.4-5.37,7.04-7.04,11.24-2.29,5.77-3.31,11.73-2.82,17.95.77,9.85,4.77,19.15,10.28,27.26,3.18,4.68,6.59,8.99,10.51,13.07l9.71,10.06,2.85,3.09c4.83,5.25,8.97,10.88,12.55,17.1,3.8,6.74,7.05,13.87,8.21,21.98-4.69-6.68-9.29-12.65-14.78-18.27-4.77-4.9-9.73-9.37-14.98-13.74l-18.05-15.03c-4.35-3.62-8.4-7.38-12.35-11.44-11.47-11.82-20.8-24.53-25.93-40.24-4.2-12.84-12.03-42.12,8.52-67.44,10.67-13.14,29.03-22.1,44.91-21.81,24.41.45,38.5,12.16,44.08,25.89,3.38,8.3,3.2,17.04-.47,25.17-2.46,5.46-4.7,8.4-4.23,13.53.23,2.52,1.47,5.61,2.88,7.67l1.55,2.27c1.23,1.81.77,4.12-1.27,5.18-1.67.87-3.53,1.39-5.36,1.99-1.01.33-1.76,1.22-1.51,2.31l.56,2.46c.29,1.28-.02,2.78-1.25,3.34l-1.96.9c.53,1,.7,2.16.24,3.3-1,2.49-4.07,1.53-4.44,4.31-.61,4.52-1.35,8.64-6.37,9.39-4.17.62-9.73-1.62-13.78-3.37-3.1-1.34-5.24-2.38-8.02-.18-1.27,1-2.18,2.32-2.84,3.82-2.74,6.24-1.57,15.01,1.46,20.95l2.77,5.41c-6.89-6.54-10.86-15.68-8.98-25.01.63-3.15,1.87-6.03,4.19-8.18,1.61-1.49,3.86-2.38,5.99-1.85,1.8.45,3.41,1.23,5.1,1.95,2.75,1.18,5.41,2.27,8.28,3.13,3.72,1.11,7.83,1.25,8.8-2.67l.64-4.45c.3-2.1,1.59-3.52,3.68-3.77.57-.07,1.33-.6,1.07-1.25-.23-.6-.76-1.55-1.19-1.96l-2.93-1.36c2.18-.24,4.02-.11,5.85-.96,2.1-.97-.02-2.39.55-5.74"/>
    <path class="st1" d="M169.03,281.53c-.09.75-.17,1.15-.38,1.67-.74,1.81,1.06,2.67.99,3.18-.11.69-3.75.87-6.66-1.21-1.97-1.41-3.6-3.24-4.37-5.57,1.53.63,2.64,1.4,3.83,2.25,1.62,1.18,4.12,2.23,5.17,1.15l1.43-1.47Z"/>
    <path class="st1" d="M194.84,236.83l-.72,3.62-.89-3.74c-.1-.43-.63-1.11-1.08-1.23l-3.36-.85,3.2-.76c.56-.13,1.15-.67,1.28-1.24l.83-3.76.76,3.66c.08.4.63,1.16,1.05,1.28l3.08.83-2.94.8c-.51.14-1.09.77-1.22,1.39"/>
    <path class="st1" d="M216.37,246.01c1.1-.26,2.12.35,2.39,1.35.27.98-.31,1.99-1.24,2.28-1.05.34-2.09-.11-2.48-1.21-.32-.92.16-2.15,1.33-2.43"/>
    <path class="st1" d="M206.86,263.42l-.72,3.62-.89-3.74c-.1-.43-.63-1.11-1.08-1.23l-3.36-.85,3.2-.76c.56-.13,1.15-.67,1.28-1.24l.83-3.76.76,3.66c.08.4.63,1.16,1.05,1.28l3.08.83-2.94.8c-.51.14-1.09.77-1.22,1.39"/>
    <path class="st1" d="M225.3,256.02l-.72,3.62-.89-3.74c-.1-.43-.63-1.11-1.08-1.23l-3.36-.85,3.2-.76c.56-.13,1.15-.67,1.28-1.24l.83-3.76.76,3.66c.08.4.63,1.16,1.05,1.28l3.08.83-2.94.8c-.51.14-1.09.77-1.22,1.39"/>
    <path class="st0" d="M241.1,294.06s-1.73-1.48-3.92-2.07c-3.45-.92-4.89-.46-4.89-.46,0,0,1.81-5.33,1.23-13.16l-.06-1.52.33.24c1.59,1.19,9.61,8.52,7.31,16.96M224.32,345.07c-.1-.1-9.94-9.56-25.23-13.48h0s6.37-.13,15.16,4.49c4.6,2.42,8.64,5.93,10.38,8.74l.84,1.36-1.14-1.11ZM221.08,356.74c-2.49-5.1-9.77-17.38-23.58-21.32h0s4.07-.3,10.16,3.01c7.17,3.89,12.74,11.26,13.85,18.34l.2,1.27-.63-1.29ZM208.5,328.59c5.44.96,7.51,2.54,8.16,2.98.98.67,1.23,1.36,1.23,1.36,0,0-8-4.19-17.77-4.18h-.69s2.8-1.26,9.07-.16M204.45,316.08c.35-.6.65-1.12.65-1.53.02-2.45.11-3.06.62-4.62l.34-1.04.15,4.09c.01.45.12.76.32.94.2.18.52.24,1,.2,1.51-.13,5.03-.42,8.42.66l.43.14-.39.22c-.1.06-2.55,1.41-4.21,1.65-1.72.25-3.62.19-5.06-.16-.6-.14-.93-.2-1.22.19-.86,1.18-1.28,2.54-1.64,3.84l-.18.65-.19-.64c-.58-1.92.28-3.4.97-4.59M251.09,294.46c-2.62-8.15-8.36-16.38-14.44-22.39-1.25-1.23-3.15-2.83-4.24-3.12-1.47-.39-2.69.32-3.15,1.71-.52,1.57-.75,3.19-.9,4.89-.31,3.44-.64,6.77-1.39,10.24-2.38-3.02-5.63-6.17-9.09-7.65-1.38-.61-1.55.44-1.35,1.08.15.49.75,4.05.75,4.05.45,2.44.96,4.79,1.12,7.19-1.24.38-4.26,1.27-6.37,2.24-6.96,3.2-11.61,6.8-13.97,14.17-1.9,5.94-6.5,8.55-12.01,10.78-1.59.64-2.54,1.78-2.2,3.6.31,1.66.51,3.52,1.79,4.87.88-1.61,2.15-2.84,3.83-2.68l-2.52,2.2c-1.03.9-1.32,2.34-.89,3.64l.65,1.97c-1.01,3.68,1.17,7.03,4.69,8.44,5.27,2.11,11.25,1.24,16.03,7.17,2.59,3.21,3.31,7.37,2.26,11.38-1.72,6.56-7.77,11.77-12.85,16.23-3.81,3.35-7.24,6.89-10.27,10.98-7.01,9.2-10.32,20.56-9.56,32.1.09.16.23.41.32.37l.45-.18c2.72-4.84,5.96-9.17,9.75-13.24,4.35-4.75,9.09-8.84,14.25-12.69l11.64-7.84,12.34-7.72c5.33-3.34,10.25-7.01,14.92-11.24,6.36-5.76,11.36-12.73,15.55-20.1,4.79-8.41,6.04-14.39,6.5-21.86.47-10.79-3.81-21.23-11.63-28.59"/>
  </g>
</svg>