<svg xmlns="http://www.w3.org/2000/svg"
     viewBox="0 0 1774 237"
     preserveAspectRatio="none"
     aria-hidden="true">
  <path
    d="M 0 123
    C 18 122.85, 84 123.95, 120 122
    C 156 120.05, 204 115.55, 240 110
    C 276 104.45, 324 93.25, 360 85
    C 396 76.75, 444 62.35, 480 55
    C 516 47.65, 564 38.55, 600 36
    C 636 33.45, 684 35, 720 38
    C 756 41, 808.5 51.35, 840 56
    C 871.5 60.65, 903 67.2, 930 69
    C 957 70.8, 993 69.2, 1020 68
    C 1047 66.8, 1083 62.05, 1110 61
    C 1137 59.95, 1168.5 59.65, 1200 61
    C 1231.5 62.35, 1284 64.75, 1320 70
    C 1356 75.25, 1404 87.75, 1440 96
    C 1476 104.25, 1527 119.15, 1560 125
    C 1593 130.85, 1627.9 135.15, 1660 135
    C 1692.1 134.85, 1756.9 125.65, 1774 124
    L 1774 237
    L 0 237
    Z"
    fill="#faf7f2"
  />
</svg>
